<?xml version="1.0" standalone="no"?>
<!DOCTYPE svg PUBLIC "-//W3C//DTD SVG 20010904//EN"
 "http://www.w3.org/TR/2001/REC-SVG-20010904/DTD/svg10.dtd">
<svg version="1.0" xmlns="http://www.w3.org/2000/svg"
 width="1415.000000pt" height="4096.000000pt" viewBox="0 0 1415.000000 4096.000000"
 preserveAspectRatio="xMidYMid meet">

<g transform="translate(0.000000,4096.000000) scale(0.100000,-0.100000)"
fill="#000000" stroke="none">
<path d="M7040 40884 c-46 -20 -97 -44 -111 -55 -30 -21 -114 -41 -254 -60
-49 -6 -106 -17 -125 -24 -32 -11 -78 -19 -255 -44 -53 -8 -46 -9 67 -10 81
-1 153 5 200 15 79 17 106 19 368 34 433 24 463 24 483 3 17 -20 14 -20 -375
-27 -216 -3 -413 -11 -438 -16 -25 -6 -110 -14 -190 -19 -297 -19 -428 -33
-550 -57 -69 -14 -172 -31 -230 -39 -143 -20 -276 -50 -330 -74 -25 -11 -119
-32 -210 -46 -271 -43 -384 -73 -600 -162 -161 -66 -410 -203 -548 -301 -83
-59 -278 -242 -447 -420 -43 -45 -84 -81 -90 -78 -13 5 -98 -68 -89 -76 3 -3
-18 -30 -46 -61 -27 -30 -50 -61 -50 -68 0 -8 -11 -36 -25 -63 -14 -27 -25
-58 -25 -68 0 -10 -4 -18 -8 -18 -4 0 -14 -35 -21 -77 -15 -94 -20 -115 -29
-109 -4 2 -7 -10 -8 -27 0 -18 -10 -68 -21 -112 -37 -141 -53 -219 -73 -355
-11 -73 -27 -158 -35 -190 -22 -86 -81 -387 -105 -535 -12 -71 -32 -175 -45
-230 -13 -55 -29 -129 -36 -165 -6 -36 -20 -92 -29 -125 -10 -33 -23 -89 -30
-125 -25 -140 -101 -418 -131 -477 -18 -35 -48 -80 -68 -101 -20 -22 -37 -45
-39 -53 -2 -8 -8 -16 -13 -20 -5 -3 -7 -13 -3 -22 11 -29 -5 -64 -44 -101 -20
-20 -41 -36 -47 -36 -5 0 4 14 22 29 39 37 68 79 59 89 -4 4 -17 -7 -29 -23
-12 -17 -37 -46 -54 -66 -37 -41 -41 -51 -15 -43 9 3 3 -4 -15 -16 -36 -24
-102 -135 -100 -165 1 -11 -3 -19 -10 -17 -7 1 -13 -7 -13 -17 0 -11 -5 -23
-11 -27 -8 -5 -10 -30 -6 -76 l6 -70 -37 -34 c-20 -19 -40 -34 -44 -34 -3 0
-30 -20 -60 -44 -29 -23 -57 -44 -63 -46 -16 -4 -63 -129 -70 -185 -1 -5 -4
-17 -8 -25 -13 -32 -39 -128 -48 -180 -15 -88 -15 -532 -1 -629 7 -46 17 -92
22 -101 13 -24 80 -46 185 -60 l90 -13 66 -67 c36 -37 102 -93 147 -124 45
-32 85 -63 89 -69 5 -7 16 -17 27 -22 27 -15 86 -186 122 -355 6 -25 6 -25 24
10 15 27 19 57 20 138 0 89 -3 105 -20 122 -11 11 -34 50 -50 87 -37 80 -36
100 9 223 18 47 38 105 46 130 20 63 131 149 225 174 131 35 150 39 156 33 3
-3 9 -65 12 -138 5 -92 11 -134 20 -137 6 -2 12 4 12 13 0 9 6 15 13 12 6 -2
11 -10 9 -17 -1 -7 2 -18 7 -24 6 -7 9 -23 6 -36 -5 -28 4 -47 16 -29 6 10 11
6 18 -14 6 -16 11 -34 11 -42 0 -21 21 -30 32 -14 10 15 9 6 -6 -31 -8 -20 42
-44 60 -29 10 8 17 2 29 -22 9 -17 28 -41 42 -53 18 -16 28 -40 39 -96 8 -41
17 -87 20 -103 4 -15 1 -33 -5 -41 -7 -8 -14 -46 -16 -86 -5 -67 -4 -71 14
-65 21 6 33 -9 45 -59 7 -27 6 -28 -24 -24 -28 4 -30 2 -30 -26 0 -17 7 -53
15 -80 8 -27 15 -76 15 -109 0 -50 -3 -60 -20 -64 -11 -3 -20 -12 -20 -20 0
-8 5 -11 10 -8 6 4 18 1 26 -6 14 -11 15 -10 12 11 -2 20 1 24 23 25 14 0 33
6 42 14 14 11 18 10 26 -10 61 -151 72 -183 67 -195 -3 -8 1 -14 9 -14 8 0 15
-5 15 -11 0 -5 13 -37 30 -71 16 -33 27 -65 23 -71 -3 -5 2 -16 11 -23 18 -13
13 -40 -5 -29 -5 4 -9 -6 -9 -20 0 -15 4 -24 10 -20 6 4 10 3 9 -2 -1 -4 -1
-20 0 -35 1 -21 5 -26 18 -21 11 4 14 3 9 -5 -4 -7 -16 -12 -27 -12 -12 0 -19
-7 -19 -20 0 -11 -4 -20 -10 -20 -11 0 -14 -129 -4 -179 7 -35 24 -42 24 -10
0 32 35 20 36 -12 1 -14 4 -31 8 -38 4 -6 9 -24 12 -39 3 -15 7 -34 11 -42 3
-8 7 -18 8 -22 2 -5 3 -9 5 -10 5 -8 12 -46 11 -70 0 -16 4 -28 9 -28 6 0 10
5 10 12 0 6 3 8 7 4 5 -4 8 -11 8 -14 0 -4 8 -23 17 -42 9 -19 21 -47 27 -62
8 -21 15 -25 32 -21 18 5 20 3 15 -15 -10 -29 9 -36 22 -7 8 18 8 25 -1 29 -7
3 -3 4 8 3 18 -2 20 3 18 55 -1 32 2 60 8 64 6 4 6 11 -2 21 -10 11 -10 16 0
23 10 6 11 8 1 12 -7 2 -13 18 -14 36 -1 19 -6 32 -14 32 -8 0 -10 5 -5 13 11
17 12 36 3 42 -13 8 2 55 19 56 10 0 11 2 4 6 -7 2 -13 14 -14 26 0 12 -3 16
-6 10 -5 -15 -32 -17 -52 -4 -12 8 -12 12 2 25 8 9 21 16 28 16 8 0 9 3 0 13
-6 8 -8 17 -4 20 3 4 -1 7 -10 7 -10 0 -17 -7 -17 -15 0 -22 -17 -18 -23 5 -3
11 0 20 6 20 8 0 7 4 -1 12 -17 17 -15 28 7 28 18 0 23 21 8 36 -15 16 -7 44
13 44 11 0 20 -3 20 -8 0 -7 39 -23 105 -42 95 -27 268 -74 317 -85 32 -7 65
-19 75 -26 13 -11 101 -14 477 -14 403 0 469 2 526 17 36 9 108 22 160 28 130
15 263 50 257 69 -3 10 7 13 24 6 18 -7 75 12 66 22 -8 7 27 27 64 36 13 4 41
23 63 42 21 19 42 35 46 35 20 0 217 184 236 220 11 22 34 56 52 76 18 20 32
43 32 51 0 8 6 27 14 41 61 113 113 245 146 372 96 371 91 357 132 402 21 23
38 46 38 50 0 5 12 7 28 6 71 -5 104 2 109 22 5 20 15 25 26 14 3 -3 41 -7 84
-9 44 -1 89 -7 100 -14 12 -6 39 -11 60 -11 45 -1 72 -15 105 -55 56 -67 121
-234 173 -445 18 -75 46 -146 97 -250 115 -232 175 -312 293 -389 22 -14 45
-31 50 -37 37 -40 282 -174 317 -174 11 0 29 -5 41 -12 30 -16 152 -38 212
-38 28 0 82 -7 120 -16 139 -31 895 -28 977 5 23 9 78 26 228 71 41 12 89 28
105 35 17 7 64 23 105 36 41 13 98 38 125 56 74 47 225 197 225 223 0 12 11
36 25 54 14 18 37 66 51 107 13 41 27 81 30 89 4 12 11 9 29 -12 13 -16 33
-28 44 -28 25 0 35 46 28 130 -4 51 -2 61 17 79 20 18 21 30 20 119 -1 55 -7
108 -13 120 -7 13 -9 70 -5 168 7 173 18 204 95 279 38 37 57 48 91 52 24 3
48 12 55 20 6 8 16 12 21 9 14 -8 21 49 28 225 l7 156 41 -40 c23 -21 48 -53
56 -70 12 -24 30 -36 97 -61 108 -41 202 -124 256 -225 20 -39 37 -84 37 -99
0 -26 -40 -135 -75 -202 l-17 -33 -27 29 c-27 30 -100 149 -118 194 -7 19 -11
-5 -16 -107 -6 -106 -4 -136 8 -159 8 -16 15 -39 15 -50 0 -12 6 -40 14 -62
14 -40 14 -40 -46 -161 -64 -129 -77 -183 -78 -332 0 -53 4 -69 19 -83 22 -20
41 -18 147 14 33 10 121 26 195 35 74 8 166 22 204 29 39 8 104 17 145 21 42
4 101 18 135 32 33 13 96 33 140 44 44 11 101 30 126 44 25 13 63 26 85 30 74
12 129 28 184 55 61 31 262 161 298 194 59 53 97 184 81 276 -28 155 -118 377
-194 479 -18 25 -75 87 -125 136 -51 50 -116 122 -145 160 -29 39 -67 84 -84
102 -17 18 -63 76 -102 129 -40 53 -92 120 -117 147 -52 59 -122 164 -122 184
0 25 16 13 37 -29 12 -24 42 -68 67 -98 25 -30 82 -106 127 -168 45 -62 86
-115 92 -119 12 -7 8 0 -62 102 -30 44 -76 105 -101 135 -45 52 -98 132 -129
193 -8 15 -18 27 -23 27 -4 0 -8 5 -8 11 0 6 -38 61 -84 122 -46 62 -99 141
-118 177 -19 36 -65 111 -103 168 -37 56 -75 124 -85 150 -10 26 -25 65 -33
87 -9 22 -33 99 -55 170 -98 319 -135 427 -142 416 -18 -30 -59 77 -110 288
-23 91 -50 204 -61 251 -55 227 -136 584 -149 660 -7 36 -34 166 -62 290 -28
124 -59 270 -69 325 -10 55 -28 136 -39 180 -12 44 -31 127 -44 185 -62 278
-128 374 -504 737 -215 208 -309 286 -405 334 -32 16 -87 48 -123 70 -92 56
-295 152 -379 179 -38 12 -138 46 -220 75 -83 29 -193 63 -245 76 -159 37
-359 121 -330 139 8 5 7 9 -5 13 -10 5 -14 3 -9 -4 4 -7 1 -10 -7 -7 -8 3 -14
11 -14 18 0 7 -7 15 -15 17 -13 4 -13 3 0 -6 29 -21 -13 -12 -45 9 -24 16 -47
20 -117 20 -90 0 -178 17 -362 71 -54 16 -104 35 -110 43 -20 24 -62 27 -108
6 -33 -15 -57 -18 -103 -14 -102 9 -123 14 -152 38 -37 31 -181 76 -241 76
-31 -1 -76 -13 -132 -36z m-70 -736 c-10 -45 -17 -85 -15 -88 6 -10 -57 -27
-170 -46 -94 -16 -243 -55 -330 -87 -110 -40 -334 -168 -438 -250 -46 -36 -59
-31 -134 45 l-48 49 39 32 c275 225 603 365 966 411 58 8 115 14 126 15 l22 1
-18 -82z m318 66 c203 -28 414 -90 562 -164 126 -63 368 -218 404 -258 18 -21
18 -22 -10 -54 -16 -18 -46 -48 -66 -66 l-37 -33 -78 59 c-86 66 -182 126
-270 171 -96 48 -302 118 -403 136 -52 9 -127 28 -165 41 l-70 25 -15 79 -16
80 26 0 c14 0 76 -7 138 -16z m-228 -99 c0 -19 -4 -35 -10 -35 -11 0 -14 53
-3 63 11 12 13 8 13 -28z m128 -101 c94 -31 226 -96 331 -164 l79 -51 50 -132
c47 -125 93 -270 142 -452 15 -52 20 -93 16 -121 -7 -51 -51 -154 -65 -154
-15 0 -15 0 14 62 39 83 34 132 -37 363 -68 221 -138 384 -180 421 -69 61
-260 162 -372 195 -62 19 -76 20 -130 9 -128 -25 -336 -130 -416 -210 -49 -49
-87 -133 -155 -337 -85 -259 -98 -335 -70 -413 18 -50 18 -50 6 -50 -21 0 -44
102 -38 169 6 90 115 455 182 614 27 64 226 182 418 247 103 36 130 36 225 4z
m-7 -178 c175 -69 318 -193 398 -343 21 -41 5 -24 -32 32 -79 119 -200 215
-344 275 -63 27 -86 31 -132 28 -62 -5 -153 -39 -239 -89 -76 -45 -198 -169
-246 -249 -21 -36 -35 -56 -32 -46 4 11 28 55 54 99 83 139 209 237 386 298
86 30 97 30 187 -5z m-694 -118 c-3 -7 -22 -60 -42 -118 l-36 -105 -65 -40
c-35 -22 -81 -56 -100 -76 -35 -36 -36 -37 -20 -67 21 -40 20 -59 -1 -71 -13
-7 -28 -4 -56 12 l-38 21 -23 -28 -22 -29 -29 49 c-16 27 -39 63 -51 80 -21
27 -22 32 -9 45 13 13 10 23 -24 82 -43 73 -57 107 -44 107 5 0 41 -20 81 -45
40 -25 75 -45 78 -45 3 0 34 22 68 49 74 58 179 124 261 162 68 32 79 34 72
17z m1230 -29 c126 -70 154 -87 208 -127 33 -25 66 -54 74 -64 16 -24 24 -21
98 35 58 45 103 66 103 49 0 -5 -23 -46 -50 -92 -50 -82 -51 -83 -32 -104 34
-37 34 -45 7 -78 -14 -17 -35 -48 -45 -69 -32 -61 -5 -58 55 5 l52 57 35 -48
c144 -202 257 -479 274 -668 3 -33 7 -79 10 -102 l5 -41 52 -7 c65 -9 168 -32
204 -46 28 -11 28 -11 -22 -24 -27 -8 -87 -19 -132 -26 -45 -6 -86 -15 -91
-18 -5 -3 -16 -55 -25 -114 -21 -136 -67 -295 -116 -401 -46 -100 -149 -259
-224 -348 -31 -36 -57 -69 -57 -73 0 -3 17 -32 39 -63 49 -72 84 -142 72 -142
-5 0 -33 19 -63 43 -67 54 -103 77 -121 77 -8 0 -32 -14 -53 -31 -22 -18 -79
-58 -129 -91 l-90 -59 -32 38 c-48 57 -47 82 4 136 24 25 70 67 103 92 33 25
60 52 60 59 0 8 -21 42 -47 76 -27 35 -52 69 -58 77 -7 10 -6 16 5 23 27 18
46 10 115 -45 l69 -55 22 21 c33 31 148 204 198 299 64 121 111 281 130 443
l6 47 -33 0 c-17 0 -71 7 -119 16 -79 14 -88 18 -88 38 0 18 9 25 49 35 28 7
80 16 118 19 l68 7 -3 63 c-2 34 -10 89 -16 123 -7 33 -9 62 -4 65 15 10 8 48
-13 70 -12 13 -36 58 -54 101 -42 102 -121 234 -195 327 -56 69 -60 77 -60
126 0 66 -16 57 -25 -15 -4 -39 -12 -58 -25 -65 -41 -22 -53 -4 -40 56 8 36 6
42 -22 71 -18 18 -49 45 -70 59 -21 15 -38 32 -38 38 -1 6 -20 64 -44 129 -24
64 -42 117 -40 117 2 0 20 -9 41 -21z m-1905 -68 c12 -20 30 -46 42 -59 l20
-22 -35 -38 c-62 -65 -115 -134 -183 -238 -142 -218 -213 -421 -261 -746 -6
-40 -3 -39 -147 -77 l-38 -9 0 53 c0 74 27 265 50 351 77 287 250 602 438 796
53 54 57 57 74 41 10 -9 28 -33 40 -52z m2605 2 c110 -128 202 -265 287 -425
32 -63 105 -242 125 -308 17 -58 69 -320 76 -387 l7 -61 -44 10 c-23 6 -67 16
-97 22 l-54 11 -22 130 c-12 72 -30 159 -39 194 -58 217 -172 432 -342 643
l-65 80 37 56 c43 66 64 92 75 92 4 0 29 -26 56 -57z m-1519 -241 c32 -21 55
-69 55 -115 0 -109 -138 -154 -220 -72 -27 27 -33 40 -33 78 0 107 109 168
198 109z m474 18 c11 0 35 -15 54 -34 30 -30 34 -41 34 -84 0 -55 -22 -92 -70
-117 -99 -51 -209 38 -180 146 15 54 86 105 128 93 8 -2 23 -4 34 -4z m-1355
-156 l41 -51 -43 -64 c-66 -99 -130 -220 -163 -307 -35 -89 -72 -261 -72 -332
l0 -49 58 -6 c116 -14 228 -43 215 -56 -16 -16 -165 -49 -224 -49 l-57 0 4
-42 c23 -213 100 -424 222 -608 55 -83 119 -160 132 -160 5 0 32 21 62 46 29
25 65 52 80 60 25 13 28 12 42 -8 14 -19 13 -24 -15 -62 -81 -112 -82 -114
-67 -130 24 -23 183 -140 217 -158 36 -20 43 -63 14 -90 -10 -8 -31 -29 -46
-46 l-28 -31 -85 52 c-47 29 -112 74 -145 100 -70 57 -68 57 -189 -23 -41 -27
-76 -47 -78 -45 -5 4 2 16 77 138 l42 68 -62 67 c-170 182 -300 462 -335 722
-9 69 -17 130 -19 136 -2 6 -36 16 -76 23 -41 7 -93 17 -116 22 -23 5 -54 9
-69 9 -15 0 -25 3 -22 6 9 9 201 54 230 54 48 0 58 9 58 55 0 75 38 267 73
370 55 162 115 273 230 427 l51 68 12 -28 c6 -15 29 -50 51 -78z m305 -91
c-10 -41 5 -120 32 -171 13 -24 12 -29 -11 -59 -14 -18 -26 -44 -27 -58 -1
-17 -6 -23 -14 -20 -8 3 -17 5 -22 5 -4 0 -10 53 -12 118 -5 125 6 187 39 224
22 24 26 13 15 -39z m910 -64 c79 -21 271 -90 265 -95 -1 -2 -57 14 -122 35
-66 21 -159 46 -207 56 -84 17 -91 17 -170 1 -46 -10 -120 -29 -166 -43 -109
-34 -117 -23 -10 13 203 68 264 73 410 33z m-793 -6 c0 -25 -1 -25 -8 -8 -5
11 -7 23 -4 28 8 14 13 7 12 -20z m1549 -5 c7 -7 12 -27 12 -46 0 -32 -2 -33
-32 -30 -28 2 -34 8 -36 31 -5 46 28 73 56 45z m-1766 -23 c14 -30 -5 -57 -36
-53 -21 3 -33 36 -22 64 9 23 45 16 58 -11z m1638 -90 c8 -62 17 -105 24 -105
21 0 -19 -20 -41 -20 -11 0 -33 -13 -46 -30 -14 -16 -30 -30 -35 -30 -6 0 -22
-14 -37 -32 -24 -28 -27 -38 -22 -80 4 -26 4 -48 2 -48 -1 0 -22 16 -45 35
-23 19 -47 35 -53 35 -6 0 7 19 29 43 23 23 56 63 74 90 l34 47 23 -22 c19
-17 23 -19 23 -5 0 8 -4 27 -10 42 -8 20 -4 37 20 88 16 34 31 70 34 80 3 9 7
17 10 17 2 0 10 -47 16 -105z m-1632 -115 c-3 -82 -4 -150 -2 -150 2 0 15 25
29 55 25 58 37 65 73 39 l23 -16 -21 -32 c-11 -19 -20 -42 -20 -52 0 -15 6
-13 28 14 36 43 67 43 82 -2 7 -23 7 -41 1 -60 -14 -36 -24 -33 -16 7 6 30 6
31 -8 12 -16 -22 -30 -105 -17 -105 11 0 -4 -71 -21 -98 -16 -26 -84 -62 -117
-62 -18 0 -22 6 -22 33 0 29 -5 35 -35 46 -89 32 -128 108 -129 252 -1 62 3
81 18 98 11 12 22 21 26 21 4 0 10 -31 12 -69 4 -69 11 -91 26 -77 4 4 9 70
10 146 l4 139 28 -5 c15 -4 31 -1 34 5 16 26 19 3 14 -139z m1773 130 c0 -3 4
-64 8 -137 6 -119 12 -155 26 -142 2 3 5 37 7 77 3 76 12 87 43 52 33 -37 21
-223 -18 -282 -29 -42 -92 -78 -139 -78 -32 0 -37 -3 -43 -30 -4 -16 -11 -30
-16 -30 -5 0 -26 15 -47 34 -37 34 -37 35 -38 114 -1 44 -4 85 -8 91 -12 18
-26 12 -27 -11 -1 -14 -6 -6 -12 19 -8 35 -7 47 7 68 22 34 40 32 73 -10 15
-19 32 -35 36 -35 12 0 -2 40 -25 73 -23 33 -11 57 28 57 19 0 30 -12 52 -57
32 -63 45 -60 32 7 -5 25 -9 86 -10 135 l0 90 35 0 c19 0 35 -2 36 -5z m-882
-163 c-15 -54 -29 -56 -29 -4 0 26 -4 47 -10 47 -5 0 -10 -24 -10 -52 -1 -51
-1 -52 -15 -28 -21 36 -18 90 7 130 l21 35 23 -48 c17 -38 20 -56 13 -80z
m-618 21 c30 -39 63 -83 73 -97 17 -23 16 -23 -13 4 -56 51 -137 165 -117 165
2 0 28 -32 57 -72z m1183 4 c-37 -50 -116 -132 -128 -132 -5 0 13 24 41 53 27
28 62 72 78 96 16 24 31 38 33 32 2 -6 -8 -28 -24 -49z m-1257 16 c11 -18 40
-58 65 -89 l45 -55 -38 -22 -39 -23 0 22 c0 11 -17 37 -37 56 -21 19 -50 47
-66 62 l-28 26 31 28 c17 15 34 27 39 27 5 0 18 -15 28 -32z m601 -51 c6 -7
15 -24 21 -39 10 -26 9 -26 -22 -17 -18 5 -33 9 -33 9 -1 0 -7 14 -13 30 -9
28 -8 30 13 30 13 0 28 -6 34 -13z m162 -4 c0 -26 -31 -53 -61 -53 -27 0 -28
2 -17 25 6 13 23 29 37 34 37 14 41 13 41 -6z m-1189 -53 c21 -12 26 -48 7
-55 -7 -3 -39 6 -72 19 -51 21 -56 25 -40 35 24 13 80 14 105 1z m2258 -6 c23
-16 23 -16 -31 -35 -73 -25 -88 -24 -88 6 0 43 72 61 119 29z m-1219 -13 c0
-19 -30 -33 -57 -26 l-28 7 25 13 c28 16 60 19 60 6z m138 -3 c18 -18 14 -28
-11 -28 -13 0 -32 9 -42 20 -18 20 -17 20 11 20 17 0 35 -5 42 -12z m-128 -53
c-7 -8 -16 -15 -21 -15 -15 0 -10 22 9 43 15 17 17 17 20 3 2 -9 -2 -23 -8
-31z m90 -13 c-15 -5 -40 25 -40 47 1 11 9 7 27 -14 18 -20 22 -30 13 -33z
m-45 18 c7 -23 -2 -60 -15 -60 -11 0 -17 29 -12 58 5 27 19 29 27 2z m-491
-157 c-14 -57 -15 -76 -6 -85 24 -24 14 -36 -22 -28 -18 4 -40 4 -48 -1 -9 -5
-22 -3 -34 6 -18 13 -16 14 24 21 37 6 42 10 42 33 0 34 54 167 59 144 2 -9
-5 -50 -15 -90z m999 -50 c2 -29 5 -33 32 -33 45 0 61 -14 31 -28 -17 -8 -26
-8 -28 0 -3 7 -15 7 -43 -1 -21 -6 -40 -9 -42 -7 -2 1 4 16 12 33 14 27 13 35
-5 88 -11 32 -20 70 -19 84 1 37 60 -93 62 -136z m147 71 c0 -16 -37 -84 -46
-84 -15 0 -74 31 -74 39 0 5 -2 16 -5 23 -8 20 30 36 83 37 32 1 42 -3 42 -15z
m-1258 -10 c55 -18 56 -42 3 -67 -33 -16 -35 -16 -55 10 -11 14 -20 29 -20 34
0 4 -3 14 -6 23 -8 21 18 21 78 0z m468 -142 l0 -87 118 0 117 0 3 90 c3 83
10 104 35 105 4 0 7 -67 7 -150 0 -142 -1 -150 -19 -150 -16 0 -20 8 -23 42
-4 55 -23 59 -39 7 -8 -24 -20 -45 -28 -47 -11 -4 -10 1 2 19 24 34 22 65 -5
73 -30 8 -82 8 -102 0 -21 -8 -20 -43 1 -73 12 -18 13 -23 2 -19 -8 2 -21 23
-29 46 -20 57 -40 55 -40 -3 0 -38 -3 -45 -20 -45 -19 0 -20 7 -20 150 0 148
0 150 20 140 18 -9 20 -21 20 -98z m-250 -15 c-6 -39 -19 -108 -29 -152 -11
-44 -22 -97 -26 -118 -4 -23 -20 -54 -42 -78 l-36 -40 23 -24 c19 -21 21 -25
7 -25 -9 0 -24 11 -33 25 -16 25 -15 29 19 103 21 45 51 139 72 227 20 83 39
159 42 170 13 40 15 -12 3 -88z m-280 48 c7 -22 8 -40 2 -51 -8 -14 -13 -10
-32 20 -12 21 -20 40 -17 43 3 3 15 -10 26 -28 23 -38 28 -28 6 11 -8 14 -14
31 -15 38 0 23 18 3 30 -33z m1054 -77 c35 -155 69 -257 101 -309 31 -48 26
-73 -18 -95 l-32 -17 23 25 c27 30 28 40 1 64 -34 31 -47 66 -78 206 -32 146
-46 248 -33 248 4 0 20 -55 36 -122z m271 82 c-21 -41 -18 -50 5 -15 25 38 26
16 1 -25 l-19 -31 -6 27 c-8 30 11 87 25 78 5 -3 2 -18 -6 -34z m-1642 -65 c4
-27 3 -35 -3 -25 -5 8 -10 28 -10 44 0 39 6 30 13 -19z m1677 15 c-6 -12 -14
-19 -17 -17 -2 3 1 15 7 27 6 12 14 19 17 17 2 -3 -1 -15 -7 -27z m-129 -61
c-26 -41 -41 -57 -41 -44 1 31 36 102 57 113 31 18 26 -3 -16 -69z m398 69
c-1 -7 -5 -24 -9 -38 -7 -22 -8 -21 -9 13 -1 20 4 37 9 37 6 0 10 -6 9 -12z
m-1550 -27 c12 -16 24 -44 26 -63 5 -29 4 -31 -7 -14 -39 57 -58 88 -58 96 0
19 19 10 39 -19z m-242 -13 c-3 -8 -6 -5 -6 6 -1 11 2 17 5 13 3 -3 4 -12 1
-19z m-24 -10 c3 -13 8 -34 12 -48 6 -22 5 -23 -5 -7 -17 26 -30 77 -20 77 4
0 10 -10 13 -22z m1592 -45 c-9 -15 -14 -20 -11 -10 4 11 9 31 13 45 5 19 8
22 11 10 2 -9 -4 -29 -13 -45z m-2516 -1 l64 -7 33 -150 c39 -184 74 -293 128
-410 49 -104 145 -255 236 -370 35 -44 67 -85 72 -91 5 -7 -5 -34 -26 -70 -65
-110 -55 -107 -121 -39 -158 165 -313 417 -390 635 -50 140 -91 322 -101 442
l-7 79 24 -6 c13 -3 53 -9 88 -13z m3575 -74 c-47 -343 -139 -587 -317 -845
-80 -117 -206 -265 -221 -260 -6 2 -33 35 -60 74 l-49 71 41 49 c131 159 283
411 330 549 32 94 73 260 86 349 l12 80 64 11 c36 6 79 12 96 13 l31 1 -13
-92z m-1032 50 c-8 -8 -9 -4 -5 13 4 13 8 18 11 10 2 -7 -1 -18 -6 -23z m-979
-65 c-7 -2 -19 -2 -25 0 -7 3 -2 5 12 5 14 0 19 -2 13 -5z m517 -96 c0 -40
-22 -59 -43 -38 -8 8 -7 11 6 11 14 0 17 10 17 48 0 34 3 43 10 32 5 -8 10
-32 10 -53z m-423 21 c-3 -8 -6 -5 -6 6 -1 11 2 17 5 13 3 -3 4 -12 1 -19z
m57 7 c3 -8 -5 -12 -19 -12 -14 0 -22 4 -19 12 3 6 11 12 19 12 8 0 16 -6 19
-12z m99 0 c3 -6 -4 -11 -14 -11 -11 0 -19 5 -19 11 0 7 7 12 15 12 8 0 16 -5
18 -12z m177 -3 c0 -11 -3 -12 -14 -3 -11 9 -15 9 -19 -1 -4 -9 -6 -7 -6 4 -1
11 6 16 19 15 11 -1 20 -8 20 -15z m-542 -52 c12 0 13 -3 5 -11 -18 -18 -33 0
-31 39 l1 37 4 -32 c3 -22 10 -33 21 -33z m309 44 c-3 -3 -12 -4 -19 -1 -8 3
-5 6 6 6 11 1 17 -2 13 -5z m-692 -90 c18 -6 18 -7 2 -11 -21 -5 -109 36 -115
54 -2 6 18 1 45 -12 26 -13 57 -27 68 -31z m595 26 c0 -5 -10 -10 -22 -10 -19
0 -20 2 -8 10 19 13 30 13 30 0z m283 -10 c6 -11 5 -36 -4 -75 -7 -34 -15 -51
-16 -39 -2 11 0 39 5 62 5 22 7 43 4 47 -3 3 -21 5 -41 6 -30 0 -32 2 -16 9
28 12 56 8 68 -10z m-340 3 c-7 -2 -13 -21 -14 -41 -1 -37 -1 -37 -11 -9 -12
34 -4 57 19 56 11 0 13 -3 6 -6z m732 -3 c3 -5 2 -10 -4 -10 -5 0 -13 5 -16
10 -3 6 -2 10 4 10 5 0 13 -4 16 -10z m161 -15 c-11 -9 -41 -15 -70 -15 -64 0
-50 17 19 23 28 2 55 4 60 5 6 1 1 -5 -9 -13z m-1333 -2 c-7 -2 -19 -2 -25 0
-7 3 -2 5 12 5 14 0 19 -2 13 -5z m-107 -47 c35 -6 44 -13 58 -44 31 -65 98
-162 108 -156 6 4 8 -2 6 -12 -2 -14 -14 -20 -43 -22 -22 -2 -44 -7 -49 -12
-14 -14 -127 173 -151 248 -6 21 -5 22 12 14 10 -5 36 -13 59 -16z m144 2 c0
-6 11 -25 23 -42 21 -27 22 -35 12 -58 -11 -28 -11 -28 -42 36 -18 35 -29 67
-26 70 11 10 33 7 33 -6z m594 -10 c16 -26 -4 -53 -40 -53 -23 0 -30 5 -32 23
-7 47 47 69 72 30z m546 18 c0 -3 -4 -8 -10 -11 -5 -3 -10 -1 -10 4 0 6 5 11
10 11 6 0 10 -2 10 -4z m119 -53 c-29 -67 -101 -184 -117 -191 -21 -8 -48 13
-44 34 2 11 3 33 2 50 0 18 14 54 35 90 l35 59 54 1 54 2 -19 -45z m-862 -5
c-3 -8 -6 -5 -6 6 -1 11 2 17 5 13 3 -3 4 -12 1 -19z m373 12 c0 -5 -5 -10
-11 -10 -5 0 -7 5 -4 10 3 6 8 10 11 10 2 0 4 -4 4 -10z m-695 -105 c-5 -29
-11 -43 -17 -37 -6 6 -5 25 2 52 15 54 24 45 15 -15z m990 0 c8 -49 -9 -28
-20 25 -5 24 -4 32 3 25 6 -5 13 -28 17 -50z m-805 -25 c0 -5 -4 -10 -10 -10
-5 0 -10 5 -10 10 0 6 5 10 10 10 6 0 10 -4 10 -10z m-143 -22 c-3 -8 -6 -5
-6 6 -1 11 2 17 5 13 3 -3 4 -12 1 -19z m103 -9 c0 -5 -4 -9 -10 -9 -5 0 -10
7 -10 16 0 8 5 12 10 9 6 -3 10 -10 10 -16z m180 11 c0 -5 -2 -10 -4 -10 -3 0
-8 5 -11 10 -3 6 -1 10 4 10 6 0 11 -4 11 -10z m126 -44 c-4 -23 -9 -105 -13
-183 -3 -79 -9 -143 -13 -143 -3 0 -14 6 -23 13 -16 11 -17 24 -7 152 13 169
24 217 46 208 13 -5 15 -15 10 -47z m103 12 c13 -49 31 -203 31 -267 0 -41
-17 -70 -42 -71 -5 0 -8 44 -8 98 -1 92 -13 225 -26 264 -4 13 0 18 14 18 14
0 22 -11 31 -42z m-339 17 c0 -8 -4 -15 -10 -15 -5 0 -10 7 -10 15 0 8 5 15
10 15 6 0 10 -7 10 -15z m-30 1 c0 -3 -4 -8 -10 -11 -5 -3 -10 -1 -10 4 0 6 5
11 10 11 6 0 10 -2 10 -4z m808 -34 c2 -7 -3 -12 -12 -12 -9 0 -16 7 -16 16 0
17 22 14 28 -4z m-988 -2 c0 -5 -7 -10 -16 -10 -8 0 -12 5 -9 10 3 6 10 10 16
10 5 0 9 -4 9 -10z m-20 -41 c44 -10 50 -13 33 -20 -12 -4 -41 -2 -68 7 -46
13 -49 13 -66 -8 -25 -28 -24 -35 11 -53 43 -22 37 -26 -10 -7 -22 9 -40 21
-40 26 0 5 9 24 21 42 15 26 26 33 42 30 12 -3 47 -10 77 -17z m305 11 c3 -5
1 -10 -5 -10 -8 0 -10 -9 -6 -26 8 -29 -8 -54 -33 -54 -12 0 -10 5 8 19 18 14
21 22 14 37 -16 30 5 62 22 34z m418 -4 c3 -8 3 -24 0 -35 -4 -15 1 -27 13
-36 11 -7 16 -16 13 -19 -3 -3 -15 3 -27 15 -19 17 -20 23 -11 42 9 16 9 22 0
25 -13 4 -15 22 -2 22 5 0 11 -6 14 -14z m395 -13 c35 -51 34 -52 -4 -68 -20
-8 -39 -14 -41 -11 -2 2 10 9 26 16 30 12 30 13 15 41 -16 32 -31 34 -84 16
-19 -7 -48 -10 -65 -7 -27 6 -24 8 30 19 33 7 65 15 70 16 24 8 35 3 53 -22z
m-1068 -27 c0 -2 -7 -7 -16 -10 -8 -3 -12 -2 -9 4 6 10 25 14 25 6z m730 -46
c5 0 7 -7 3 -15 -8 -21 -17 -10 -19 23 -1 15 0 19 3 10 2 -10 8 -18 13 -18z
m-551 -33 c-13 -29 -25 -34 -32 -14 -5 16 26 58 36 48 4 -4 3 -20 -4 -34z
m-244 13 c-3 -5 -12 -10 -18 -10 -7 0 -6 4 3 10 19 12 23 12 15 0z m-112 -42
c-9 -24 -22 -52 -29 -62 -12 -18 -10 -22 14 -38 15 -10 22 -18 16 -18 -7 0
-22 8 -34 18 l-21 17 27 63 c30 69 53 86 27 20z m1277 2 c43 -83 43 -88 7
-105 -30 -14 -30 -14 -10 0 l21 16 -24 52 c-36 79 -31 110 6 37z m-976 6 c27
4 5 -15 -23 -21 -16 -3 -21 0 -18 9 3 8 0 20 -6 27 -7 7 -3 6 8 -3 11 -8 28
-14 39 -12z m630 9 c-4 -8 -10 -12 -15 -9 -11 6 -2 24 11 24 5 0 7 -7 4 -15z
m38 -27 c-15 -15 -24 -6 -16 16 5 12 10 14 17 7 8 -8 8 -14 -1 -23z m43 11
c-10 -15 -25 -10 -19 6 4 8 10 12 15 9 5 -3 7 -10 4 -15z m-765 3 c0 -14 -11
-21 -26 -15 -21 8 -17 23 6 23 11 0 20 -4 20 -8z m805 -2 c-3 -5 -10 -10 -16
-10 -5 0 -9 5 -9 10 0 6 7 10 16 10 8 0 12 -4 9 -10z m-72 -53 c9 -3 17 -2 17
4 0 6 5 7 10 4 15 -9 12 -25 -5 -32 -17 -6 -55 23 -55 41 0 8 2 8 8 0 4 -6 15
-13 25 -17z m-696 -12 c-9 -21 -47 -20 -47 2 0 13 3 14 12 5 13 -13 29 -16 27
-4 -3 15 1 25 7 19 4 -3 4 -13 1 -22z m-255 -121 c-2 -10 -8 -20 -13 -22 -14
-6 -11 -28 7 -42 8 -8 19 -21 25 -31 16 -31 -17 -12 -45 26 -31 40 -31 39 -10
71 19 28 41 27 36 -2z m1238 -4 c12 -28 10 -34 -17 -67 -16 -20 -36 -39 -44
-41 -9 -3 -6 4 7 19 34 38 36 47 19 73 -9 14 -14 30 -10 36 12 19 33 10 45
-20z m-531 -75 c0 -5 -6 -1 -14 9 -8 11 -15 24 -15 30 0 5 7 1 15 -10 8 -10
14 -23 14 -29z m-204 -5 c-10 -11 -23 -20 -28 -20 -6 0 0 11 13 25 27 29 42
25 15 -5z m153 -3 c2 -10 -3 -17 -12 -17 -10 0 -16 9 -16 21 0 24 23 21 28 -4z
m452 -46 c19 -36 12 -60 -17 -67 -16 -3 -33 -7 -40 -9 -17 -5 -42 27 -26 32 8
3 11 14 7 28 -5 20 -1 24 23 28 15 2 31 5 35 6 4 0 12 -8 18 -18z m-937 3 c3
-3 1 -18 -4 -32 -7 -18 -6 -28 3 -34 8 -6 -6 -7 -37 -3 -27 4 -54 11 -60 17
-7 7 -2 9 18 4 24 -6 27 -3 27 18 0 13 -6 27 -12 29 -7 3 3 6 23 6 20 1 38 -2
42 -5z m-146 -56 c-3 -8 -6 -5 -6 6 -1 11 2 17 5 13 3 -3 4 -12 1 -19z m135
-38 c35 -10 55 -26 45 -36 -2 -2 -35 3 -73 12 -37 8 -83 13 -100 9 -32 -6 -56
8 -32 18 23 9 122 7 160 -3z m1046 -9 c3 -10 -3 -12 -25 -7 -17 4 -63 0 -104
-9 -91 -19 -97 -19 -79 -1 35 34 198 47 208 17z m-878 -7 c22 -9 40 -20 40
-25 0 -11 -61 10 -80 27 -19 18 -9 18 40 -2z m590 6 c0 -10 -17 -19 -69 -35
-38 -12 -20 17 20 31 43 16 49 16 49 4z m-268 -17 c55 -14 75 -15 109 -6 l42
11 -7 -52 c-3 -28 -6 -70 -6 -93 l0 -42 -74 -11 c-70 -12 -74 -14 -80 -41 -5
-28 -8 -29 -59 -29 -51 0 -53 1 -62 33 -9 29 -14 32 -56 35 l-46 3 -6 77 c-3
42 -7 84 -9 92 -2 11 12 16 61 22 35 4 66 10 69 13 10 10 56 5 124 -12z m1072
-45 c59 -49 73 -65 64 -76 -6 -7 -59 -48 -117 -90 -58 -42 -107 -80 -109 -84
-9 -20 -21 -5 -16 20 4 21 -3 44 -26 85 -18 32 -36 57 -42 57 -20 0 -1 20 82
84 47 36 86 66 87 66 2 0 36 -28 77 -62z m-2156 8 c31 -24 79 -57 105 -74 27
-17 43 -33 37 -37 -22 -14 -52 -88 -48 -121 4 -30 1 -34 -20 -34 -28 0 -162
87 -235 152 l-49 43 69 57 c37 31 72 57 76 57 5 1 34 -19 65 -43z m584 5 l23
-24 -25 8 c-14 4 -62 10 -107 12 -77 5 -101 14 -70 27 6 3 45 4 84 3 62 -2 76
-6 95 -26z m1088 19 c11 -7 5 -10 -25 -10 -39 -1 -88 -9 -150 -25 -30 -8 -30
-8 -11 13 10 11 28 23 40 25 42 8 131 6 146 -3z m-1138 -48 c20 -20 5 -22 -85
-10 -55 7 -83 15 -75 20 18 13 145 5 160 -10z m1157 9 c8 -5 -7 -11 -45 -14
-33 -4 -74 -9 -93 -13 -38 -7 -36 10 3 26 28 11 117 12 135 1z m-974 -21 c22
-11 51 -20 65 -21 25 -1 25 -1 -5 -14 -60 -28 -94 -29 -120 -5 -29 27 -55 20
-55 -14 0 -16 9 -32 26 -43 24 -15 29 -15 69 -1 l43 16 -10 -28 c-8 -25 -16
-30 -64 -36 -68 -8 -79 -4 -103 45 -23 44 -24 42 52 92 51 34 53 34 102 9z
m752 -20 l63 -39 -23 -47 -22 -46 -69 6 c-39 4 -71 8 -72 9 0 1 -4 14 -8 29
l-6 27 35 -14 c48 -21 62 -19 91 10 20 20 23 28 14 45 -14 25 -31 25 -53 0
-20 -24 -37 -25 -105 -5 -59 18 -68 33 -18 33 18 0 46 7 62 16 40 21 41 21
111 -24z m-1013 0 c14 -5 26 -15 26 -21 0 -6 -7 -8 -16 -5 -9 4 -45 12 -80 18
-35 7 -64 17 -64 22 0 10 97 1 134 -14z m1286 11 c0 -5 -26 -14 -57 -20 -32
-5 -69 -13 -83 -17 -25 -7 -25 -7 -6 14 10 11 30 23 45 25 51 8 101 7 101 -2z
m-1346 -51 c29 -11 66 -45 66 -60 0 -7 -6 -7 -17 -2 -10 5 -61 12 -113 15
-100 7 -140 14 -140 27 0 23 157 38 204 20z m1435 -2 c28 -6 51 -15 51 -20 0
-5 4 -6 10 -3 11 7 47 -61 37 -71 -3 -4 -30 -13 -59 -20 l-53 -14 45 5 c25 2
54 7 63 11 9 3 17 2 17 -3 0 -10 -87 -32 -230 -59 l-75 -14 70 5 c39 3 106 14
149 25 44 11 81 18 84 15 10 -10 -71 -36 -147 -47 -82 -11 -324 -2 -301 12 7
5 0 10 -22 14 -18 4 -42 13 -53 22 -18 13 -11 14 75 11 52 -3 79 -3 60 0 -88
10 -284 44 -289 50 -4 3 10 3 29 0 238 -40 489 -47 587 -15 l43 13 -23 28
c-22 27 -23 27 -87 16 -36 -6 -80 -8 -99 -5 -19 3 -48 -1 -67 -9 -37 -15 -39
-14 -23 16 23 45 110 60 208 37z m-1664 -58 c-9 -16 -14 -30 -13 -30 2 0 39
-7 83 -16 108 -20 262 -19 424 6 135 20 185 21 94 2 -50 -11 -174 -27 -328
-42 -85 -8 -84 -9 35 -4 69 3 160 11 203 18 74 12 97 7 59 -13 -9 -5 -51 -17
-92 -26 -41 -9 -93 -20 -115 -25 -93 -21 -315 -2 -378 32 -37 19 -8 19 74 -2
46 -12 118 -23 159 -25 l75 -4 -65 9 c-86 12 -242 50 -255 62 -6 6 -1 7 15 4
92 -19 134 -26 158 -25 15 0 -7 7 -48 14 -118 22 -121 24 -105 63 8 17 19 32
25 32 6 0 5 -12 -5 -30z m715 -66 c0 -2 -7 -4 -15 -4 -8 0 -15 4 -15 10 0 5 7
7 15 4 8 -4 15 -8 15 -10z m1520 -41 c46 -41 44 -86 -3 -130 -45 -40 -83 -43
-125 -8 -74 62 -34 163 65 165 22 0 43 -9 63 -27z m-1760 -78 c129 -2 240 -4
247 -5 12 0 43 -120 43 -170 0 -29 -1 -30 -37 -25 -201 28 -258 38 -343 59
-53 14 -130 38 -171 55 -84 33 -209 92 -209 98 0 2 53 1 118 -2 64 -3 223 -7
352 -10z m380 -14 c-5 -11 -10 -29 -10 -40 0 -12 -4 -21 -10 -21 -5 0 -10 18
-10 40 0 34 3 40 20 40 17 0 19 -3 10 -19z m735 -22 c-121 -58 -334 -125 -475
-148 -155 -25 -205 -29 -205 -16 0 6 9 51 19 102 l18 92 57 3 c31 2 193 4 361
5 l305 1 -80 -39z m-645 -464 c25 -13 55 -34 67 -47 25 -27 55 -96 47 -109 -3
-5 -32 -9 -65 -9 -55 0 -59 1 -59 23 0 35 -33 59 -87 64 -91 8 -153 -51 -153
-146 0 -86 60 -151 139 -151 52 0 87 22 101 64 10 33 11 33 63 28 29 -2 54 -6
56 -8 13 -12 -26 -90 -61 -124 -49 -48 -99 -63 -195 -58 -60 3 -78 8 -114 33
-118 84 -146 288 -52 381 89 89 208 112 313 59z m1423 11 c107 -32 160 -110
161 -236 0 -85 -19 -133 -76 -187 -94 -91 -283 -86 -364 10 -69 82 -86 205
-39 297 54 106 187 155 318 116z m-3285 -12 c60 -5 62 -6 64 -35 0 -16 1 -34
2 -41 1 -8 -23 -11 -76 -9 l-78 2 0 -180 0 -181 -25 0 c-14 0 -37 11 -50 25
-24 23 -25 29 -25 165 0 77 0 143 1 146 2 15 -29 24 -83 24 -46 0 -59 4 -68
19 -11 21 -14 64 -4 73 6 7 238 1 342 -8z m682 -85 l0 -102 92 7 c51 3 96 10
101 15 5 5 8 48 6 95 l-4 86 58 0 57 0 0 -192 c0 -106 -3 -217 -6 -245 l-7
-53 -48 0 -49 0 0 100 0 100 -100 0 -99 0 -3 -97 -3 -98 -55 0 -55 0 -3 243
-2 242 60 0 60 0 0 -101z m712 -86 c41 -104 86 -212 99 -240 12 -29 20 -55 16
-59 -3 -4 -32 -2 -63 2 -55 9 -57 10 -73 54 -9 25 -20 44 -24 43 -4 -2 -49 -3
-100 -3 l-93 0 -21 -50 -21 -50 -56 0 c-31 0 -56 3 -56 6 0 11 59 170 100 269
23 55 51 126 63 158 l21 57 66 0 66 0 76 -187z m737 90 c1 -54 4 -100 7 -103
6 -5 37 28 124 133 l55 67 140 0 140 0 76 -118 c42 -64 87 -137 100 -162 l24
-45 3 163 2 162 53 0 52 0 0 -243 0 -242 -57 -3 -57 -3 -39 58 c-21 32 -65
103 -97 158 -31 55 -61 104 -66 110 -5 5 -9 -57 -9 -156 l0 -164 -52 1 -53 0
-3 237 c-2 195 -5 237 -16 237 -13 0 -196 -187 -196 -200 0 -3 44 -65 99 -137
54 -73 96 -135 93 -138 -3 -3 -33 -5 -67 -5 l-63 0 -61 91 c-33 49 -61 99 -61
111 0 18 -3 17 -36 -12 -36 -31 -36 -33 -38 -108 l-1 -77 -55 0 -55 0 -3 243
-3 242 59 0 60 0 1 -97z m-1672 64 c66 -35 84 -130 37 -186 -14 -17 -32 -31
-40 -31 -24 0 -16 -19 15 -35 27 -13 30 -21 36 -82 3 -38 11 -79 16 -92 5 -13
8 -25 7 -26 -2 -2 -30 0 -63 3 l-60 7 -3 67 c-4 82 -8 86 -118 89 l-79 2 -3
-74 c-2 -43 -8 -77 -15 -81 -22 -14 -57 -8 -77 12 -19 19 -20 33 -20 235 l0
215 168 -3 c138 -2 173 -5 199 -20z m3187 -44 c24 -38 70 -108 102 -158 l59
-90 6 60 c4 33 7 96 8 139 1 105 37 149 75 94 13 -18 16 -55 16 -198 0 -205
-6 -223 -64 -228 -49 -4 -64 9 -133 123 -69 113 -107 168 -117 166 -5 0 -7
-57 -7 -125 l2 -123 -31 -27 c-36 -30 -40 -31 -64 -13 -17 13 -18 29 -14 219
3 112 8 210 12 216 4 7 29 12 57 12 l49 0 44 -67z m-6935 -567 c-9 -8 -10 -7
-5 7 3 10 7 24 7 30 1 7 3 4 6 -7 3 -10 -1 -23 -8 -30z m5606 -334 c248 8 867
-1 980 -14 44 -5 109 -11 145 -14 235 -15 358 -26 375 -33 69 -28 268 -67 287
-55 4 3 8 0 8 -6 0 -9 -58 -10 -232 -5 -128 3 -255 9 -283 12 -27 3 -160 5
-295 4 -206 0 -259 -4 -335 -20 -49 -11 -138 -30 -197 -41 -96 -18 -144 -33
-200 -61 -10 -5 -41 -12 -70 -15 -29 -3 -58 -10 -64 -15 -6 -5 -19 -7 -28 -3
-9 3 -16 1 -16 -6 0 -7 -8 -9 -19 -5 -18 5 -168 -28 -201 -45 -27 -15 -55 -23
-67 -21 -8 1 -13 -9 -13 -24 0 -20 -5 -25 -25 -25 -34 0 -34 0 -85 -27 -33
-18 -67 -26 -130 -30 -95 -6 -141 -21 -75 -24 22 -2 47 -3 55 -5 8 -1 39 -2
68 -3 28 -1 52 -5 52 -10 0 -10 -194 -4 -220 6 -8 4 -85 10 -170 14 -115 5
-171 13 -219 28 -87 29 -161 64 -155 73 3 4 -4 8 -15 8 -12 0 -21 4 -21 10 0
5 -7 7 -15 4 -8 -4 -15 -1 -15 5 0 6 -11 11 -24 11 -14 0 -28 5 -31 10 -3 6
-33 10 -66 10 -35 0 -59 4 -59 11 0 6 -8 8 -19 4 -11 -3 -22 -1 -26 5 -4 6
-14 8 -24 5 -22 -7 -113 10 -154 29 -18 8 -52 17 -77 19 -25 2 -65 14 -90 25
-26 13 -65 22 -93 22 -27 0 -83 9 -125 19 -66 17 -118 20 -352 22 -151 1 -335
-1 -408 -6 -119 -7 -132 -6 -126 8 7 20 80 36 214 47 58 5 141 16 185 25 81
15 129 19 404 30 84 4 188 11 230 17 112 15 387 21 410 9 26 -14 140 -24 154
-13 7 5 23 13 37 17 44 13 405 22 785 18 204 -2 406 -2 450 -1z m1860 -122 c8
-13 -5 -13 -25 0 -13 8 -13 10 2 10 9 0 20 -4 23 -10z m260 -30 c3 -5 -1 -10
-9 -10 -9 0 -16 5 -16 10 0 6 4 10 9 10 6 0 13 -4 16 -10z m-5062 -7 c-7 -2
-19 -2 -25 0 -7 3 -2 5 12 5 14 0 19 -2 13 -5z m44 1 c-3 -3 -12 -4 -19 -1 -8
3 -5 6 6 6 11 1 17 -2 13 -5z m4971 -1 c-10 -2 -26 -2 -35 0 -10 3 -2 5 17 5
19 0 27 -2 18 -5z m397 -33 c7 -12 -2 -12 -30 0 -19 8 -19 9 2 9 12 1 25 -3
28 -9z m-6945 -149 c0 -5 -9 -7 -20 -4 -11 3 -20 7 -20 9 0 2 9 4 20 4 11 0
20 -4 20 -9z m4200 -101 c0 -5 -3 -10 -7 -10 -5 0 -19 -3 -33 -6 l-25 -5 25
15 c30 18 40 20 40 6z m-3880 -1225 c0 -19 -4 -35 -10 -35 -5 0 -10 16 -10 35
0 19 5 35 10 35 6 0 10 -16 10 -35z m250 -600 c0 -8 -4 -15 -10 -15 -5 0 -10
7 -10 15 0 8 5 15 10 15 6 0 10 -7 10 -15z m-23 -108 c1 -12 -4 -17 -14 -15
-22 4 -25 34 -4 34 9 0 18 -9 18 -19z m11 -52 c-3 -3 -9 2 -12 12 -6 14 -5 15
5 6 7 -7 10 -15 7 -18z m-12 -45 c-1 -16 -4 -32 -8 -36 -13 -12 -38 18 -38 46
0 23 4 27 23 23 18 -4 23 -11 23 -33z m190 -117 c-11 -11 -17 4 -9 23 7 18 8
18 11 1 2 -10 1 -21 -2 -24z m-136 -24 c0 -5 -4 -9 -10 -9 -5 0 -10 7 -10 16
0 8 5 12 10 9 6 -3 10 -10 10 -16z m147 -75 c-3 -3 -12 -4 -19 -1 -8 3 -5 6 6
6 11 1 17 -2 13 -5z m13 -196 c0 -6 -6 -5 -15 2 -8 7 -15 14 -15 16 0 2 7 1
15 -2 8 -4 15 -11 15 -16z"/>
<path d="M6161 39323 c-1 -17 4 -35 9 -38 12 -7 12 22 0 50 -7 17 -9 15 -9
-12z"/>
<path d="M7054 37975 c-4 -9 0 -23 9 -32 21 -21 49 -9 45 19 -4 28 -45 38 -54
13z"/>
<path d="M6785 37600 c-3 -5 -1 -10 4 -10 6 0 11 5 11 10 0 6 -2 10 -4 10 -3
0 -8 -4 -11 -10z"/>
<path d="M7813 36863 c9 -2 25 -2 35 0 9 3 1 5 -18 5 -19 0 -27 -2 -17 -5z"/>
<path d="M7688 36853 c12 -2 30 -2 40 0 9 3 -1 5 -23 4 -22 0 -30 -2 -17 -4z"/>
<path d="M8330 36820 c-28 -28 -26 -76 6 -105 22 -21 29 -22 57 -13 42 14 67
37 67 60 0 22 -18 60 -34 70 -22 15 -76 8 -96 -12z m90 -19 c14 -28 13 -35
-15 -65 -33 -35 -45 -26 -45 35 0 45 2 49 25 49 14 0 29 -8 35 -19z"/>
<path d="M8382 36769 c1 -13 8 -23 13 -21 15 3 12 35 -3 40 -9 3 -13 -3 -10
-19z"/>
<path d="M8433 36165 c-39 -17 -60 -48 -69 -102 -10 -62 3 -108 40 -148 30
-32 39 -35 87 -35 32 0 63 6 76 15 87 61 83 223 -7 267 -42 21 -83 22 -127 3z"/>
<path d="M6545 36145 c-6 -17 -43 -114 -62 -162 -4 -10 13 -13 67 -13 65 0 71
2 65 18 -4 9 -20 53 -35 97 -22 61 -30 75 -35 60z"/>
<path d="M5502 36109 l3 -64 88 0 c98 0 117 11 117 66 0 41 -22 51 -121 57
l-90 5 3 -64z"/>
<path d="M6153 40683 c15 -2 39 -2 55 0 15 2 2 4 -28 4 -30 0 -43 -2 -27 -4z"/>
<path d="M5870 40665 c-65 -15 -144 -31 -220 -44 -53 -10 -52 -10 20 -5 41 3
125 15 185 26 61 11 137 23 170 27 l60 8 -80 1 c-44 0 -105 -5 -135 -13z"/>
<path d="M9138 40413 c7 -3 16 -2 19 1 4 3 -2 6 -13 5 -11 0 -14 -3 -6 -6z"/>
<path d="M9170 40406 c0 -4 95 -36 107 -36 12 1 -47 26 -79 34 -16 3 -28 5
-28 2z"/>
<path d="M4630 40390 c-11 -8 -7 -9 15 -4 37 8 45 14 19 14 -10 0 -26 -5 -34
-10z"/>
<path d="M4550 40360 c-19 -11 -28 -19 -20 -19 8 0 31 8 50 19 19 11 28 19 20
19 -8 0 -31 -8 -50 -19z"/>
<path d="M9347 40339 c7 -7 15 -10 18 -7 3 3 -2 9 -12 12 -14 6 -15 5 -6 -5z"/>
<path d="M9411 40316 c10 -9 69 -36 69 -32 0 6 -55 36 -66 36 -4 0 -5 -2 -3
-4z"/>
<path d="M9497 40269 c7 -7 15 -10 18 -7 3 3 -2 9 -12 12 -14 6 -15 5 -6 -5z"/>
<path d="M9767 40119 c7 -7 15 -10 18 -7 3 3 -2 9 -12 12 -14 6 -15 5 -6 -5z"/>
<path d="M10212 39744 c10 -10 20 -16 22 -13 3 3 -5 11 -17 18 -21 13 -21 12
-5 -5z"/>
<path d="M10250 39716 c0 -2 8 -10 18 -17 15 -13 16 -12 3 4 -13 16 -21 21
-21 13z"/>
<path d="M3494 39618 c-33 -35 -67 -72 -75 -82 -13 -18 -13 -18 7 -8 18 9 141
152 132 152 -2 0 -31 -28 -64 -62z"/>
<path d="M10290 39676 c0 -2 8 -10 18 -17 15 -13 16 -12 3 4 -13 16 -21 21
-21 13z"/>
<path d="M10846 38305 c4 -22 11 -47 15 -55 6 -9 7 0 3 25 -4 22 -11 47 -15
55 -6 9 -7 0 -3 -25z"/>
<path d="M2827 37677 c-4 -10 -7 -26 -7 -35 1 -15 2 -15 11 1 6 10 9 25 7 35
-3 16 -4 15 -11 -1z"/>
<path d="M10994 37630 c21 -103 29 -131 33 -126 6 6 -17 116 -29 136 -7 11 -8
8 -4 -10z"/>
<path d="M2812 37585 c0 -16 2 -22 5 -12 2 9 2 23 0 30 -3 6 -5 -1 -5 -18z"/>
<path d="M2176 35924 c-4 -14 -25 -45 -48 -70 -52 -57 -32 -57 27 -1 31 30 45
52 45 70 0 34 -16 35 -24 1z"/>
<path d="M12260 34945 c0 -10 88 -106 128 -139 39 -34 24 -13 -53 69 -41 44
-75 75 -75 70z"/>
<path d="M3100 34440 c0 -5 5 -10 11 -10 5 0 7 5 4 10 -3 6 -8 10 -11 10 -2 0
-4 -4 -4 -10z"/>
<path d="M12661 33904 c-1 -5 -46 -41 -101 -79 -56 -38 -104 -73 -107 -78 -3
-6 14 4 38 20 24 17 67 42 94 56 57 28 89 60 82 79 -3 7 -6 8 -6 2z"/>
<path d="M2700 33654 c0 -10 29 -96 67 -198 10 -27 24 -51 30 -53 18 -6 5 64
-24 122 -44 90 -72 140 -73 129z"/>
<path d="M11668 33473 c6 -2 18 -2 25 0 6 3 1 5 -13 5 -14 0 -19 -2 -12 -5z"/>
<path d="M10861 33442 c-7 -17 -17 -30 -21 -27 -4 3 -19 -4 -33 -15 -27 -22
-52 -26 -62 -10 -3 6 -18 10 -33 10 -15 0 -33 4 -41 9 -23 15 -39 2 -78 -58
-21 -31 -51 -73 -67 -94 -28 -35 -29 -38 -11 -51 12 -8 16 -19 12 -30 -10 -25
3 -66 19 -66 9 0 14 11 14 30 0 17 4 30 9 30 14 0 20 -54 8 -69 -13 -16 -22
-471 -9 -471 10 0 11 11 16 183 2 81 6 150 9 153 3 3 15 -12 26 -34 13 -25 17
-43 11 -47 -6 -3 -10 -1 -10 4 0 6 -5 11 -12 11 -9 0 -9 -3 0 -12 7 -7 12 -20
12 -29 0 -10 3 -19 8 -22 4 -2 1 -2 -5 -1 -9 2 -13 -9 -13 -31 0 -19 4 -35 8
-35 4 0 8 -16 9 -36 1 -21 8 -41 20 -51 16 -13 16 -14 1 -9 -20 6 -22 -2 -9
-23 6 -9 18 -12 37 -7 l29 7 -24 -19 c-16 -13 -22 -25 -18 -36 9 -23 43 -16
39 8 -3 15 1 18 17 13 13 -3 21 0 21 8 0 7 7 18 15 25 12 10 15 10 15 0 0 -8
3 -10 7 -6 5 4 -1 14 -11 22 -12 8 -14 14 -7 14 9 0 11 8 6 27 -5 23 -4 25 10
13 9 -8 13 -20 9 -33 -4 -13 -3 -17 6 -12 7 4 9 18 5 37 -5 21 -4 28 4 24 6
-4 11 -3 11 3 0 5 -4 13 -10 16 -15 9 -12 25 6 25 8 0 13 4 9 9 -3 5 2 16 10
24 8 9 15 29 15 46 0 17 5 31 11 31 8 0 8 5 -1 15 -15 18 -5 49 12 39 7 -5 9
-2 5 8 -3 9 0 41 7 72 8 32 9 57 4 58 -6 2 -6 13 0 28 11 28 13 301 3 339 l-7
25 -13 -32z m-84 -85 c11 4 14 2 11 -8 -3 -8 -13 -16 -24 -18 -10 -2 -23 -10
-28 -19 -8 -14 -10 -14 -16 3 -6 18 -8 17 -23 -10 -14 -27 -16 -28 -17 -8 0
24 -22 43 -28 25 -2 -7 -8 -12 -13 -12 -5 0 -4 9 3 19 8 14 21 18 47 16 21 -1
41 3 50 13 9 9 16 11 19 4 2 -6 10 -8 19 -5z m-137 -98 c0 -14 -17 -10 -23 5
-4 10 -1 13 9 9 7 -3 14 -9 14 -14z m-52 -35 c-3 -2 -19 -7 -36 -10 -40 -8
-43 10 -4 30 24 12 28 12 35 -1 5 -8 7 -16 5 -19z m22 -224 c0 -11 -4 -20 -9
-20 -11 0 -22 26 -14 34 12 12 23 5 23 -14z m26 -47 c-11 -11 -24 9 -18 29 l5
22 9 -24 c5 -12 6 -25 4 -27z m152 -128 c-3 -3 -9 2 -12 12 -6 14 -5 15 5 6 7
-7 10 -15 7 -18z m-48 -95 c0 -5 -4 -10 -10 -10 -5 0 -10 5 -10 10 0 6 5 10
10 10 6 0 10 -4 10 -10z"/>
<path d="M11558 33463 c7 -3 16 -2 19 1 4 3 -2 6 -13 5 -11 0 -14 -3 -6 -6z"/>
<path d="M11508 33453 c7 -3 16 -2 19 1 4 3 -2 6 -13 5 -11 0 -14 -3 -6 -6z"/>
<path d="M11425 33440 l-20 -9 20 1 c11 0 31 4 45 8 l25 8 -25 0 c-14 0 -34
-3 -45 -8z"/>
<path d="M11308 33423 c12 -2 30 -2 40 0 9 3 -1 5 -23 4 -22 0 -30 -2 -17 -4z"/>
<path d="M11218 33413 c12 -2 32 -2 45 0 12 2 2 4 -23 4 -25 0 -35 -2 -22 -4z"/>
<path d="M11145 33400 c-13 -6 -15 -9 -5 -9 8 0 22 4 30 9 18 12 2 12 -25 0z"/>
<path d="M10990 33328 c-12 -22 -12 -22 6 -6 10 10 15 20 12 24 -4 3 -12 -5
-18 -18z"/>
<path d="M10930 33253 c0 -25 2 -44 4 -42 8 10 13 89 5 89 -5 0 -9 -21 -9 -47z"/>
<path d="M3401 33264 c0 -11 3 -14 6 -6 3 7 2 16 -1 19 -3 4 -6 -2 -5 -13z"/>
<path d="M3402 33185 c0 -16 2 -22 5 -12 2 9 2 23 0 30 -3 6 -5 -1 -5 -18z"/>
<path d="M3571 33184 c0 -11 3 -14 6 -6 3 7 2 16 -1 19 -3 4 -6 -2 -5 -13z"/>
<path d="M10911 33130 c-7 -38 -10 -74 -7 -79 4 -6 0 -25 -7 -43 -8 -18 -12
-40 -9 -48 8 -24 31 70 38 157 4 46 5 83 2 83 -3 0 -10 -31 -17 -70z"/>
<path d="M3580 33148 c0 -7 4 -19 9 -27 11 -17 23 1 15 23 -7 19 -24 21 -24 4z"/>
<path d="M3595 33090 c-3 -5 1 -10 10 -10 9 0 13 5 10 10 -3 6 -8 10 -10 10
-2 0 -7 -4 -10 -10z"/>
<path d="M3340 33039 c0 -5 5 -7 10 -4 6 3 10 8 10 11 0 2 -4 4 -10 4 -5 0
-10 -5 -10 -11z"/>
<path d="M3299 32998 c-1 -27 -3 -55 -3 -65 -1 -9 4 -18 9 -20 6 -1 11 14 12
34 1 20 6 39 12 42 6 4 2 16 -9 31 l-20 25 -1 -47z"/>
<path d="M3391 33028 c0 -7 4 -22 9 -33 8 -18 9 -17 9 7 1 15 -3 30 -9 33 -5
3 -10 0 -9 -7z"/>
<path d="M3590 33021 c0 -5 5 -13 10 -16 6 -3 10 -2 10 4 0 5 -4 13 -10 16 -5
3 -10 2 -10 -4z"/>
<path d="M3001 32949 c-2 -36 32 -186 50 -226 10 -23 24 -64 30 -92 6 -27 17
-55 25 -62 8 -6 14 -16 14 -22 0 -21 123 -255 157 -297 19 -25 46 -58 59 -75
l24 -30 -2 40 c-1 22 0 88 1 148 3 90 6 106 17 96 11 -9 13 -32 11 -89 -2 -43
-1 -99 3 -124 4 -25 3 -49 -3 -55 -5 -5 -5 -11 2 -15 6 -4 11 0 11 8 0 9 7 16
15 16 9 0 18 7 21 15 9 22 24 18 24 -5 0 -11 5 -20 10 -20 13 0 13 30 0 50 -5
9 -5 19 1 26 6 7 0 21 -16 40 -25 28 -29 61 -8 57 7 -2 7 5 -1 22 -10 23 -12
23 -23 8 -11 -14 -13 -8 -13 40 0 48 2 55 16 50 14 -5 14 -3 3 16 -8 11 -17
21 -21 21 -5 0 -8 7 -8 15 0 8 9 15 19 15 21 0 37 17 27 28 -4 3 -17 1 -29 -6
-16 -10 -15 -7 5 10 24 20 25 26 14 46 -6 12 -16 19 -20 15 -5 -4 -3 2 3 15 7
13 9 31 5 40 -10 23 -5 44 14 60 10 7 12 11 5 8 -6 -4 -15 -2 -18 4 -6 10 -14
115 -15 189 0 19 -3 31 -7 27 -5 -4 -8 -44 -9 -89 -1 -146 -1 -147 -29 -147
-14 0 -24 3 -23 8 1 4 -4 23 -11 42 -8 19 -13 39 -12 45 1 5 -4 14 -11 20 -8
5 -17 18 -21 28 -4 10 -11 15 -17 12 -13 -8 -13 -42 0 -50 19 -12 10 -25 -17
-25 -21 0 -24 3 -15 12 17 17 15 29 -3 22 -9 -4 -15 -19 -15 -35 0 -19 -5 -29
-15 -29 -8 0 -15 -7 -15 -15 0 -9 -11 -21 -25 -27 -16 -7 -21 -14 -14 -18 6
-4 -3 -9 -20 -12 -47 -7 -61 9 -71 85 -6 37 -14 75 -19 85 -5 9 -16 35 -25 57
-8 22 -15 33 -15 24z m397 -271 c-4 -39 -23 -48 -26 -12 -2 29 4 44 19 44 6 0
9 -14 7 -32z m-3 -58 c-3 -5 -10 -10 -16 -10 -5 0 -9 5 -9 10 0 6 7 10 16 10
8 0 12 -4 9 -10z"/>
<path d="M3347 32926 c-4 -15 -6 -31 -2 -34 10 -10 16 6 13 35 l-3 28 -8 -29z"/>
<path d="M10872 32903 c-6 -15 -13 -51 -15 -78 -5 -45 -65 -190 -111 -265 -25
-42 -63 -129 -53 -123 5 3 19 26 31 52 12 25 33 66 48 91 49 84 100 212 109
278 10 72 7 87 -9 45z"/>
<path d="M3868 32893 c6 -2 18 -2 25 0 6 3 1 5 -13 5 -14 0 -19 -2 -12 -5z"/>
<path d="M3340 32819 c0 -5 5 -7 10 -4 6 3 10 8 10 11 0 2 -4 4 -10 4 -5 0
-10 -5 -10 -11z"/>
<path d="M3870 32789 c0 -5 5 -7 10 -4 6 3 10 8 10 11 0 2 -4 4 -10 4 -5 0
-10 -5 -10 -11z"/>
<path d="M10742 32604 c-7 -8 -8 -14 -3 -14 10 0 25 19 20 25 -2 1 -10 -3 -17
-11z"/>
<path d="M3687 32561 c3 -12 11 -17 19 -14 11 4 11 7 -1 19 -19 19 -24 18 -18
-5z"/>
<path d="M10675 32540 c-4 -6 3 -10 14 -10 25 0 27 6 6 13 -8 4 -17 2 -20 -3z"/>
<path d="M3427 32420 c3 -11 7 -20 9 -20 2 0 4 9 4 20 0 11 -4 20 -9 20 -5 0
-7 -9 -4 -20z"/>
<path d="M3940 32420 c0 -5 5 -10 10 -10 6 0 10 5 10 10 0 6 -4 10 -10 10 -5
0 -10 -4 -10 -10z"/>
<path d="M10646 32363 c-6 -14 -5 -15 5 -6 7 7 10 15 7 18 -3 3 -9 -2 -12 -12z"/>
<path d="M6317 32347 c-4 -10 -7 -26 -7 -35 1 -15 2 -15 11 1 6 10 9 25 7 35
-3 16 -4 15 -11 -1z"/>
<path d="M3902 32339 c2 -6 8 -10 13 -10 5 0 11 4 13 10 2 6 -4 11 -13 11 -9
0 -15 -5 -13 -11z"/>
<path d="M3840 32294 c0 -8 5 -12 10 -9 6 4 8 11 5 16 -9 14 -15 11 -15 -7z"/>
<path d="M3880 32290 c0 -5 5 -10 10 -10 6 0 10 5 10 10 0 6 -4 10 -10 10 -5
0 -10 -4 -10 -10z"/>
<path d="M6365 32241 c-3 -5 -1 -12 5 -16 5 -3 10 1 10 9 0 18 -6 21 -15 7z"/>
<path d="M6457 32220 c-7 -11 -16 -17 -20 -14 -3 3 -15 -4 -27 -16 -12 -12
-19 -24 -16 -28 4 -3 11 -1 17 5 12 12 49 6 49 -8 0 -4 -4 -11 -10 -14 -23
-14 -7 -24 33 -21 47 3 196 -16 215 -28 17 -10 15 6 -3 30 -8 10 -15 25 -15
31 0 20 -33 53 -51 53 -10 0 -19 5 -21 11 -2 5 -33 12 -70 15 -58 4 -68 2 -81
-16z"/>
<path d="M3841 32144 c0 -11 3 -14 6 -6 3 7 2 16 -1 19 -3 4 -6 -2 -5 -13z"/>
<path d="M7305 32153 c-55 -11 -65 -14 -65 -23 0 -6 34 -10 79 -10 63 0 80 3
85 16 3 9 6 16 6 17 0 4 -86 4 -105 0z"/>
<path d="M3420 32129 c0 -16 -4 -19 -21 -14 l-22 7 22 -31 c27 -38 48 -52 31
-21 -6 12 -9 29 -6 37 5 13 10 12 26 -7 23 -27 25 -26 35 18 7 32 -2 41 -22
21 -8 -8 -13 -8 -17 0 -12 18 -26 12 -26 -10z"/>
<path d="M3462 31989 c12 -29 23 -48 25 -43 5 16 -22 87 -35 92 -7 2 -2 -19
10 -49z"/>
<path d="M3450 31948 c0 -11 30 -78 36 -78 8 0 -6 42 -22 65 -8 11 -14 17 -14
13z"/>
<path d="M7075 31640 c-8 -12 13 -80 25 -80 7 0 -6 79 -15 88 -1 2 -6 -2 -10
-8z"/>
<path d="M7110 31530 c0 -5 5 -10 11 -10 5 0 7 5 4 10 -3 6 -8 10 -11 10 -2 0
-4 -4 -4 -10z"/>
<path d="M6703 31503 c9 -2 23 -2 30 0 6 3 -1 5 -18 5 -16 0 -22 -2 -12 -5z"/>
<path d="M7195 31500 c3 -5 8 -10 11 -10 2 0 4 5 4 10 0 6 -5 10 -11 10 -5 0
-7 -4 -4 -10z"/>
<path d="M6606 31475 c-15 -8 -38 -15 -49 -15 -11 0 -18 -2 -15 -5 12 -12 108
7 108 21 0 18 -8 17 -44 -1z"/>
<path d="M7240 31480 c0 -6 7 -10 15 -10 8 0 15 2 15 4 0 2 -7 6 -15 10 -8 3
-15 1 -15 -4z"/>
<path d="M6482 31443 c-12 -2 -20 -8 -17 -12 6 -10 53 -2 61 10 5 9 -4 10 -44
2z"/>
<path d="M7388 31433 c7 -3 16 -2 19 1 4 3 -2 6 -13 5 -11 0 -14 -3 -6 -6z"/>
<path d="M7210 31146 c0 -26 5 -79 12 -117 10 -62 15 -72 37 -80 14 -6 33 -8
43 -6 10 3 18 1 18 -4 0 -4 18 -13 40 -19 22 -6 40 -15 40 -19 0 -5 9 -11 20
-14 20 -5 20 -5 0 20 -11 14 -20 36 -20 49 0 12 -5 26 -11 30 -7 4 -9 -2 -7
-14 2 -12 -1 -20 -7 -19 -5 1 -10 10 -9 20 0 10 -6 16 -15 15 -12 -2 -15 5
-14 27 2 24 -5 35 -32 55 -18 14 -31 28 -28 33 2 4 -4 10 -14 14 -25 9 -37 24
-41 48 -7 37 -12 29 -12 -19z"/>
<path d="M6720 31169 c0 -6 -6 -9 -14 -6 -8 3 -22 -1 -33 -8 -10 -9 -13 -14
-5 -15 17 0 15 -20 -2 -20 -8 0 -16 -10 -18 -22 -2 -14 -11 -24 -23 -25 -115
-11 -135 -15 -135 -29 0 -8 -4 -14 -9 -14 -15 0 -21 15 -11 30 10 16 2 42 -11
34 -13 -7 -49 -84 -49 -103 0 -9 -9 -31 -20 -49 -25 -41 -25 -62 0 -69 11 -3
20 -12 20 -21 0 -14 14 -9 16 6 5 40 20 62 52 77 21 9 46 21 56 27 11 5 66 12
123 14 57 2 108 6 113 9 6 4 8 16 5 28 -6 25 -19 114 -24 160 -1 12 -31 8 -31
-4z"/>
<path d="M3836 31102 c10 -58 138 -311 151 -299 2 2 -18 46 -45 98 -26 52 -62
126 -80 164 -22 48 -30 60 -26 37z"/>
<path d="M7391 31092 c-1 -41 25 -106 39 -97 13 8 13 -1 0 -26 -9 -15 -7 -21
5 -25 9 -4 22 -1 28 6 9 10 9 14 0 17 -7 3 -13 17 -14 31 0 15 -9 41 -20 57
-10 17 -23 39 -28 50 -8 17 -10 15 -10 -13z"/>
<path d="M7481 30931 c-8 -6 -9 -11 -3 -15 6 -3 14 -1 17 5 9 14 2 20 -14 10z"/>
<path d="M7477 30873 c-4 -3 -7 -15 -7 -26 0 -14 5 -18 20 -14 14 4 20 0 21
-11 0 -10 5 -4 11 11 7 21 7 32 -1 40 -8 8 -11 7 -11 -2 0 -10 -3 -11 -13 -2
-8 6 -17 8 -20 4z"/>
<path d="M4006 30767 c3 -10 9 -15 12 -12 3 3 0 11 -7 18 -10 9 -11 8 -5 -6z"/>
<path d="M6851 30754 c0 -11 3 -14 6 -6 3 7 2 16 -1 19 -3 4 -6 -2 -5 -13z"/>
<path d="M6846 30696 c-13 -66 -9 -144 8 -168 l16 -22 1 24 c1 28 7 119 11
165 2 21 -2 30 -13 33 -12 2 -18 -7 -23 -32z"/>
<path d="M4045 30685 c9 -22 21 -44 26 -50 6 -5 3 8 -6 30 -9 22 -21 45 -27
50 -5 6 -2 -8 7 -30z"/>
<path d="M4172 30708 c2 -6 10 -14 16 -16 7 -2 10 2 6 12 -7 18 -28 22 -22 4z"/>
<path d="M7385 30710 c-8 -13 3 -30 20 -30 19 0 26 27 9 34 -21 8 -22 8 -29
-4z"/>
<path d="M4118 30548 c58 -109 112 -202 124 -213 12 -11 -55 115 -82 155 -10
14 -29 49 -44 78 -14 28 -29 52 -32 52 -3 0 12 -33 34 -72z"/>
<path d="M6695 30600 c-16 -7 -17 -9 -3 -9 9 -1 19 -7 21 -13 3 -7 6 -3 6 10
1 12 0 22 -1 21 -2 0 -12 -4 -23 -9z"/>
<path d="M4313 30450 c6 -19 17 -41 24 -47 6 -7 13 -18 16 -25 2 -7 8 -9 13
-5 5 4 4 11 -2 15 -6 4 -14 16 -18 27 -3 11 -15 31 -26 45 l-20 25 13 -35z"/>
<path d="M9752 30392 c-15 -47 -22 -93 -22 -149 0 -95 10 -111 113 -189 51
-39 57 -27 7 13 -8 6 -15 17 -15 25 -1 7 -6 12 -12 11 -6 -1 -21 10 -34 24
-24 26 -24 26 -1 14 26 -14 27 -10 5 32 -13 25 -17 60 -17 159 -1 71 -1 128
-2 128 0 0 -10 -31 -22 -68z"/>
<path d="M6985 30370 c3 -5 8 -10 11 -10 2 0 4 5 4 10 0 6 -5 10 -11 10 -5 0
-7 -4 -4 -10z"/>
<path d="M4380 30347 c0 -7 5 -18 12 -25 9 -9 9 -12 0 -12 -7 0 -12 -5 -12
-11 0 -6 7 -8 16 -5 8 3 12 2 9 -4 -3 -6 1 -10 9 -10 8 0 22 -10 30 -22 9 -12
16 -18 16 -12 0 6 -11 28 -25 48 -13 20 -22 36 -19 36 3 0 -1 7 -10 15 -18 18
-26 19 -26 2z"/>
<path d="M4230 30281 c0 -6 4 -13 10 -16 6 -3 7 1 4 9 -7 18 -14 21 -14 7z"/>
<path d="M7018 30263 c7 -3 16 -2 19 1 4 3 -2 6 -13 5 -11 0 -14 -3 -6 -6z"/>
<path d="M4269 30198 c15 -46 16 -77 10 -238 -6 -169 -10 -199 -47 -350 -38
-157 -58 -295 -40 -284 5 3 8 -50 7 -117 0 -77 -4 -117 -10 -108 -5 8 -10 23
-11 34 -1 11 -5 -29 -9 -90 -3 -60 -10 -137 -14 -169 -6 -42 -5 -57 3 -52 15
9 20 -16 21 -114 2 -117 -13 -156 -70 -182 -50 -22 -119 -46 -229 -77 -41 -12
-93 -28 -115 -36 -22 -7 -67 -21 -100 -30 -108 -30 -708 -237 -788 -271 -43
-19 -87 -34 -98 -34 -42 0 -97 -37 -204 -139 -33 -31 -107 -95 -165 -140 -126
-100 -139 -114 -256 -261 -115 -145 -148 -199 -273 -440 -55 -107 -101 -190
-101 -185 -1 6 -8 -10 -16 -35 -8 -25 -19 -54 -24 -65 -5 -11 -12 -31 -16 -45
-3 -14 -15 -45 -26 -70 -11 -24 -23 -61 -26 -82 -2 -21 -9 -41 -13 -44 -5 -3
-9 -19 -9 -35 0 -20 -4 -28 -11 -23 -7 4 -10 1 -7 -7 3 -8 -1 -27 -9 -43 -14
-26 -23 -66 -53 -228 -5 -26 -15 -62 -23 -80 -14 -31 -19 -56 -34 -168 -3 -25
-10 -50 -15 -56 -20 -26 -52 -202 -68 -374 -6 -58 -17 -139 -25 -181 -8 -42
-15 -92 -15 -112 0 -21 -5 -37 -11 -37 -8 0 -10 -14 -6 -45 5 -33 3 -48 -9
-60 -11 -11 -16 -36 -16 -85 -1 -40 -5 -67 -10 -64 -5 4 -7 -8 -3 -28 7 -35
-21 -248 -33 -258 -4 -3 -8 -34 -9 -70 -2 -36 -9 -96 -17 -135 -8 -38 -20
-108 -26 -155 -11 -79 -30 -180 -52 -275 -9 -42 -26 -158 -34 -235 -8 -76 -14
-96 -25 -79 -7 11 -9 10 -10 -6 -6 -73 -8 -90 -14 -114 -6 -25 -6 -25 10 -6
16 20 16 19 11 -5 -3 -14 -15 -95 -26 -180 -12 -89 -27 -165 -36 -178 -10 -16
-12 -27 -6 -35 6 -7 8 -25 5 -40 -4 -22 -8 -25 -15 -15 -6 8 -7 0 -3 -24 3
-23 0 -50 -9 -72 -8 -20 -13 -36 -10 -36 3 0 -1 -10 -8 -22 -12 -24 -15 -37
-42 -243 -9 -66 -21 -150 -26 -188 -6 -37 -10 -82 -11 -100 -1 -31 -1 -31 -9
-7 -6 17 -7 10 -4 -25 3 -27 1 -70 -4 -95 l-10 -45 -2 40 -2 40 -9 -45 c-5
-25 -5 -46 0 -50 5 -3 7 -18 4 -33 -4 -18 -8 -24 -13 -17 -4 7 -7 -7 -7 -31 2
-70 -27 -301 -32 -254 -3 35 -6 30 -22 -50 -21 -104 -22 -118 -10 -111 5 3 12
26 16 52 3 25 9 44 12 41 6 -6 -6 -67 -59 -297 -22 -96 -53 -244 -69 -328 -16
-85 -31 -157 -34 -162 -7 -11 -75 -406 -85 -495 -17 -141 -39 -246 -71 -335
-20 -56 -62 -339 -61 -410 1 -19 -3 -62 -8 -95 -6 -33 -12 -89 -15 -125 -9
-129 -29 -290 -35 -290 -4 0 -5 -13 -2 -29 2 -16 -3 -65 -12 -108 -8 -43 -20
-121 -26 -173 -18 -150 -30 -264 -30 -280 0 -13 -1 -13 -11 0 -8 12 -9 8 -6
-15 5 -31 3 -62 -32 -365 -19 -171 -29 -290 -31 -360 -1 -30 -3 -32 -11 -15
-7 15 -8 13 -3 -12 3 -17 0 -58 -6 -90 -20 -98 -30 -220 -33 -393 -3 -140 -6
-170 -22 -200 -17 -31 -19 -60 -22 -245 -1 -115 1 -231 6 -257 5 -30 4 -49 -2
-51 -6 -2 -5 -22 3 -55 13 -54 30 -72 23 -24 -2 18 1 13 10 -13 22 -64 36 -87
96 -148 65 -68 149 -126 194 -133 80 -13 79 -13 75 -45 -7 -43 8 -46 23 -4 15
40 23 42 106 20 71 -18 120 -43 248 -127 55 -35 136 -88 181 -116 l81 -51 156
-2 156 -2 7 -31 c4 -17 15 -57 25 -89 10 -32 18 -61 17 -65 -1 -4 4 -25 10
-47 6 -22 13 -71 15 -108 2 -38 8 -72 13 -75 5 -4 9 -14 9 -22 -1 -8 1 -19 4
-25 9 -18 7 -299 -3 -330 -5 -16 -15 -34 -22 -38 -13 -7 -13 -95 0 -172 1 -11
6 -45 10 -75 18 -138 95 -418 123 -450 9 -10 13 -10 13 -2 0 7 4 12 8 12 4 0
18 -49 32 -110 13 -60 25 -108 28 -106 2 3 -5 51 -16 108 -11 57 -26 164 -32
238 -7 74 -21 160 -31 191 -23 68 -23 95 2 134 37 59 38 62 69 455 16 194 31
300 43 293 6 -4 8 0 4 11 -16 40 79 414 147 583 13 32 43 130 65 218 82 314
128 461 240 765 11 30 41 122 67 204 36 115 54 157 79 185 18 20 37 52 44 72
6 20 30 67 53 104 78 130 82 145 84 300 1 102 6 155 19 195 10 30 28 102 40
160 13 58 23 92 24 75 0 -34 -17 -127 -48 -260 -19 -81 -29 -216 -16 -203 3 3
14 59 25 124 38 240 98 484 126 515 79 87 105 -136 70 -596 -9 -122 -12 -212
-6 -215 10 -6 -9 -212 -21 -220 -3 -3 -10 -59 -14 -125 -7 -117 -2 -141 16
-73 5 20 6 -13 2 -87 -3 -66 -7 -190 -8 -275 -2 -85 -8 -195 -14 -245 -6 -49
-13 -189 -16 -310 -3 -121 -13 -287 -21 -370 -11 -106 -15 -227 -12 -410 3
-238 5 -263 23 -290 l19 -30 -22 19 c-34 29 -26 11 15 -35 57 -63 81 -69 274
-69 92 0 170 4 173 8 3 5 -66 12 -152 15 -166 6 -243 19 -264 45 -11 13 -10
14 7 5 42 -22 168 -35 395 -43 227 -7 238 -9 318 -38 46 -17 87 -33 90 -37 14
-13 8 -408 -7 -457 -7 -26 -17 -45 -21 -43 -5 3 -2 26 6 52 13 44 20 162 8
151 -3 -3 -13 -57 -24 -119 -10 -63 -23 -132 -29 -154 -7 -22 -16 -98 -22
-170 -11 -139 -12 -145 -28 -275 -15 -121 -14 -196 4 -213 13 -14 11 -32 -14
-164 -16 -81 -41 -222 -56 -313 -15 -91 -36 -212 -46 -270 -10 -58 -23 -132
-28 -165 -14 -83 -7 -1505 7 -1565 6 -25 16 -90 21 -145 6 -55 17 -127 25
-160 25 -103 27 -133 3 -63 -23 69 -37 93 -37 65 0 -24 51 -148 59 -143 4 3
24 -29 44 -69 21 -41 55 -93 76 -117 21 -24 41 -58 44 -75 8 -42 -7 -43 -19
-1 -5 17 -15 33 -23 36 -10 3 -11 0 -3 -14 6 -11 13 -41 17 -68 4 -27 11 -43
15 -36 14 23 20 -68 10 -166 -5 -54 -10 -112 -10 -129 0 -24 -2 -27 -11 -15
-8 11 -9 6 -7 -22 2 -21 1 -38 -4 -38 -4 0 -15 -26 -23 -57 -9 -32 -21 -69
-26 -83 -5 -14 -11 -42 -13 -61 -2 -20 -5 -40 -8 -45 -10 -17 -40 -150 -52
-229 -8 -55 -9 -129 -4 -234 8 -150 13 -178 59 -326 63 -205 68 -243 74 -540
3 -154 8 -316 12 -360 4 -44 8 -372 8 -730 2 -631 7 -772 36 -915 6 -30 16
-77 21 -105 5 -27 11 -195 13 -373 1 -190 7 -333 13 -350 6 -15 13 -67 17
-117 3 -49 11 -119 16 -155 5 -36 14 -202 19 -370 5 -168 14 -368 20 -445 28
-374 39 -595 44 -875 6 -348 23 -694 37 -760 24 -109 29 -140 38 -220 24 -202
59 -360 103 -460 35 -81 90 -164 128 -195 21 -16 65 -52 99 -79 34 -27 61 -54
61 -61 0 -6 12 -22 26 -36 26 -24 84 -132 84 -156 0 -7 4 -13 9 -13 4 0 11
-33 15 -72 3 -40 9 -103 12 -140 6 -60 4 -71 -19 -110 -14 -24 -30 -63 -37
-87 -8 -30 -25 -56 -57 -85 -25 -22 -57 -61 -71 -86 -14 -25 -42 -63 -62 -85
-20 -22 -59 -83 -85 -135 -26 -52 -53 -102 -60 -110 -7 -8 -25 -37 -40 -65
-47 -87 -119 -212 -158 -274 -46 -73 -66 -160 -68 -291 0 -52 -4 -106 -8 -120
-5 -14 -6 18 -4 70 3 94 3 95 -11 52 -20 -62 -25 -158 -8 -154 8 1 11 -2 7 -7
-14 -24 -14 -219 0 -295 8 -43 15 -107 15 -142 l0 -64 1039 0 1039 0 7 47 c5
38 17 57 62 105 31 32 51 58 45 58 -6 0 -14 -4 -17 -10 -3 -5 -11 -10 -17 -10
-7 0 6 15 28 34 21 19 62 54 89 80 50 46 122 84 314 166 87 38 116 56 178 114
40 38 73 64 73 59 0 -5 -5 -14 -12 -21 -8 -8 -8 -12 -1 -12 11 0 28 29 24 44
-1 4 4 18 12 30 8 11 25 53 38 91 20 60 23 89 23 205 0 124 -14 228 -34 255
-4 6 -10 47 -12 93 -3 45 -7 85 -11 88 -3 3 -19 7 -34 8 -36 3 -39 7 -26 31
10 16 14 18 24 8 7 -7 21 -13 31 -13 14 0 18 8 18 35 0 19 4 35 9 35 5 0 11
28 13 63 2 34 8 71 13 82 8 20 8 20 -13 1 -12 -11 -22 -25 -22 -32 0 -16 -66
-57 -83 -51 -7 2 0 10 16 17 15 7 27 16 27 20 0 8 28 46 57 76 22 24 39 62 35
78 -2 4 2 14 9 22 6 8 9 20 6 28 -3 8 1 20 9 27 10 8 12 15 4 23 -5 5 -10 17
-9 25 0 11 2 12 6 4 10 -25 21 -12 38 45 47 159 57 182 110 248 109 137 136
174 145 200 6 15 19 39 30 53 28 41 118 271 134 348 9 37 26 118 40 178 14 61
30 155 35 210 6 55 18 143 27 195 15 84 17 222 19 1230 2 1143 1 1220 -34
1525 -5 44 -10 166 -11 270 -1 105 -6 246 -11 315 -10 139 -25 402 -33 585 -3
66 -8 156 -10 200 -3 44 -7 136 -9 205 -2 69 -9 137 -15 152 -12 28 -19 374
-8 385 3 4 6 18 5 32 0 24 -1 24 -9 6 -9 -20 -9 -18 -15 110 -1 22 -6 105 -10
185 -4 80 -4 181 1 225 8 74 9 65 15 -125 6 -194 6 -191 4 67 -1 172 2 273 8
273 6 0 7 20 3 49 -4 33 -3 52 5 56 6 4 9 19 6 34 -5 28 1 92 29 321 22 175
23 261 5 405 -8 61 -16 205 -20 320 -6 201 -7 208 -21 170 -16 -43 -21 -292
-6 -350 7 -27 6 -29 -8 -15 -26 25 -34 267 -11 345 36 131 37 140 24 363 -6
119 -15 363 -19 542 -5 179 -13 397 -18 485 -6 88 -11 300 -12 470 -1 171 -6
326 -10 345 -5 19 -11 159 -15 310 -9 411 -22 672 -39 800 -20 156 -23 190
-16 190 3 0 5 87 5 192 0 166 3 200 19 241 10 26 26 52 35 57 14 8 14 9 -1 10
-30 0 -66 -22 -72 -44 -3 -11 -3 -79 0 -151 4 -88 2 -125 -5 -115 -5 9 -10 79
-12 155 -1 77 -6 145 -11 152 -10 12 29 46 43 37 4 -2 61 -5 126 -5 65 -1 110
-4 100 -8 -15 -5 -12 -9 15 -19 26 -9 33 -17 33 -39 0 -16 4 -68 7 -118 7 -94
-4 -91 -23 5 -6 32 -6 21 -1 -35 3 -44 7 -157 7 -252 0 -94 4 -175 8 -179 4
-4 7 12 7 36 0 98 9 21 25 -210 12 -161 15 -291 11 -380 -6 -129 5 -273 34
-425 5 -27 9 -69 9 -92 1 -24 7 -45 15 -50 7 -5 16 -33 19 -66 5 -50 4 -58
-10 -53 -13 5 -14 1 -8 -21 4 -16 10 -73 14 -128 l8 -100 3 75 3 75 8 -70 c4
-38 13 -158 19 -265 6 -107 15 -215 20 -240 5 -25 10 -99 10 -165 1 -66 8
-169 16 -230 8 -60 19 -182 24 -270 6 -88 17 -199 25 -248 9 -52 15 -150 15
-245 0 -214 15 -373 40 -425 26 -54 25 -79 -5 -107 -33 -31 -44 -18 -17 20 17
22 20 35 13 52 -17 45 -31 95 -32 114 -1 10 -7 -21 -15 -69 -8 -49 -26 -121
-40 -160 -31 -85 -49 -170 -62 -289 -10 -86 -4 -133 27 -212 11 -27 120 -204
191 -309 16 -25 30 -50 30 -56 0 -6 4 -11 9 -11 16 0 29 -55 41 -170 7 -63 16
-125 21 -138 5 -13 9 -41 9 -62 0 -22 4 -40 9 -40 4 0 13 -31 20 -69 14 -88
14 -101 0 -81 -8 11 -9 8 -5 -15 3 -16 9 -51 12 -78 4 -26 11 -47 16 -47 5 0
9 -26 8 -57 0 -32 4 -87 10 -123 6 -36 11 -154 10 -262 0 -131 3 -198 10 -198
6 0 10 -33 11 -82 1 -84 18 -203 32 -225 4 -7 8 -182 8 -390 0 -208 4 -389 9
-403 4 -14 14 -83 20 -155 7 -71 16 -134 20 -140 4 -5 10 -165 14 -355 6 -335
11 -406 35 -537 14 -79 30 -273 41 -518 22 -479 93 -825 301 -1460 147 -449
143 -440 282 -725 102 -208 180 -486 217 -770 4 -36 11 -76 14 -90 3 -14 10
-82 17 -152 6 -71 16 -128 21 -128 6 0 7 -14 3 -32 -6 -25 -4 -30 8 -25 12 4
16 -7 21 -56 9 -74 35 -188 47 -201 5 -6 9 -26 9 -45 0 -20 10 -56 21 -81 16
-35 22 -42 30 -30 8 11 9 10 4 -8 -4 -15 -1 -24 10 -28 9 -4 24 -23 34 -43 11
-20 43 -63 73 -96 64 -73 94 -112 49 -68 -39 40 -54 44 -20 6 73 -85 103 -111
117 -105 12 4 14 1 8 -13 -8 -22 54 -171 64 -154 4 5 14 -16 22 -48 36 -136
99 -242 175 -295 24 -16 43 -26 43 -22 0 3 6 2 13 -3 34 -28 121 -43 302 -51
159 -7 197 -6 235 6 25 9 95 19 155 23 191 13 255 21 249 30 -3 5 52 7 123 4
81 -3 119 -1 103 4 l-25 9 25 1 c14 1 81 4 150 7 69 3 145 10 170 14 25 5 79
7 120 5 82 -4 125 5 183 42 49 31 70 79 91 202 9 52 23 105 31 118 22 34 24
161 3 193 -9 14 -24 57 -33 95 -14 65 -89 301 -105 335 -4 9 -47 115 -95 235
-48 121 -91 225 -95 230 -4 6 -15 39 -24 75 -9 36 -23 70 -32 77 -9 6 -11 14
-5 17 11 7 9 35 -15 171 -21 126 -31 472 -14 529 13 43 78 155 185 321 114
177 154 284 231 610 7 33 18 78 24 100 5 22 15 106 22 188 13 153 7 228 -27
378 -7 35 -21 96 -29 134 -31 139 -51 381 -46 555 6 216 4 298 -8 395 -15 118
-15 1038 0 1166 14 116 15 215 6 364 -4 55 -12 172 -17 260 -5 88 -15 196 -21
240 -5 44 -15 163 -20 265 -5 102 -14 201 -20 220 -5 19 -10 82 -10 140 0 58
-4 184 -10 280 -5 96 -15 281 -20 410 -6 129 -17 271 -26 315 -9 44 -18 96
-20 115 -3 19 -9 44 -13 55 -19 47 -41 121 -41 138 0 9 7 17 16 17 10 0 14 6
11 14 -11 27 -19 84 -33 228 -17 170 -30 263 -33 226 0 -16 -6 -28 -11 -28 -6
0 -10 6 -8 12 1 7 -4 30 -11 51 -12 34 -11 40 5 58 20 22 22 91 5 158 -5 20
-15 79 -21 131 -6 52 -15 112 -21 134 -6 21 -8 50 -4 63 4 17 2 23 -6 18 -8
-5 -9 -1 -4 14 4 13 2 21 -5 21 -9 0 -10 11 -5 36 4 23 3 34 -4 30 -5 -4 -12
17 -17 51 -4 32 -10 60 -13 63 -4 3 -4 86 0 185 7 188 10 202 74 370 15 39 40
124 56 190 15 66 33 138 39 160 35 135 42 212 38 440 -3 225 -4 231 -29 280
-29 55 -69 166 -69 190 0 9 -14 46 -31 83 -16 37 -32 87 -35 112 -3 25 -11 95
-19 155 -8 61 -24 187 -35 280 -27 221 -42 295 -102 500 -28 94 -68 231 -90
305 -55 190 -74 250 -92 291 -14 34 -14 38 3 53 12 11 18 33 20 74 5 106 8
139 15 151 4 7 10 78 12 159 5 157 18 267 39 319 12 28 19 32 62 38 78 11 141
35 191 73 72 55 106 103 164 236 17 39 39 83 50 98 84 119 174 395 165 506 -7
92 -34 299 -52 397 -53 300 -69 377 -90 440 -36 108 -76 624 -54 693 10 30 8
94 -6 255 -2 21 -8 44 -14 51 -14 17 -29 155 -37 347 -6 144 -4 170 10 198 15
28 16 54 10 201 -5 122 -10 170 -20 174 -17 7 -37 108 -36 191 1 78 23 232 47
321 9 33 20 79 25 104 5 25 13 63 19 85 23 89 33 271 38 680 6 577 6 586 -16
679 -20 83 -18 110 15 268 3 14 1 34 -5 45 -11 16 -11 16 -6 -4 3 -12 1 -24
-5 -28 -6 -4 -10 6 -10 24 0 16 4 33 10 36 5 3 10 36 10 73 0 37 7 110 15 162
8 52 20 196 25 320 6 124 14 257 20 295 5 39 10 196 10 350 0 189 5 319 15
400 20 154 34 418 45 825 6 248 12 337 24 375 18 58 66 109 166 175 36 24 84
56 108 73 46 31 207 108 312 150 70 27 212 47 349 47 51 1 82 5 95 15 28 21
93 19 122 -4 22 -18 28 -18 106 -3 84 15 124 12 233 -17 49 -13 175 -14 207
-2 13 5 43 30 68 56 25 26 69 72 98 101 29 30 51 54 49 54 -9 0 60 76 121 134
34 33 61 65 58 71 -2 7 12 34 32 61 82 109 113 157 167 258 31 58 61 108 66
112 5 3 7 10 4 15 -4 5 -1 9 4 9 6 0 11 7 11 15 0 8 6 29 14 47 15 34 94 303
102 348 3 14 9 50 15 80 6 30 11 64 11 75 0 11 4 62 9 112 8 89 12 552 5 603
-2 14 -11 42 -19 63 -13 29 -21 36 -39 34 -19 -2 -23 3 -23 28 0 24 -12 43
-56 85 -30 30 -71 84 -90 120 -18 36 -55 86 -80 111 -25 26 -51 61 -59 78 -19
46 -85 99 -149 118 -31 9 -70 27 -88 40 -17 13 -36 23 -41 23 -5 0 -15 7 -22
15 -7 9 -20 13 -28 10 -8 -3 -21 0 -28 6 -8 7 -39 13 -69 15 -57 4 -170 44
-317 113 -48 23 -90 41 -93 41 -2 0 -32 13 -65 29 -34 17 -77 35 -96 41 -39
13 -44 26 -13 35 12 4 17 11 13 15 -17 15 -183 98 -187 93 -6 -5 -67 25 -67
33 0 2 15 -3 33 -12 27 -15 30 -15 19 -1 -16 19 -102 60 -110 53 -3 -3 -1 -6
4 -6 6 0 19 -7 30 -15 10 -9 -1 -6 -26 6 -47 23 -67 37 -37 26 11 -4 16 -3 12
4 -4 6 -13 8 -21 5 -21 -8 -93 23 -105 45 -5 11 -14 17 -19 14 -13 -8 -172 70
-163 80 5 4 0 5 -9 2 -10 -4 -18 -2 -18 3 0 5 -7 6 -17 3 -10 -4 -14 -2 -10 4
8 13 -40 35 -63 28 -10 -3 -33 3 -51 14 -19 11 -62 27 -97 36 -61 15 -102 31
-222 88 -79 38 -199 83 -240 92 -103 21 -268 76 -373 124 -38 17 -74 31 -80
31 -7 0 -34 11 -62 25 -27 13 -59 25 -70 25 -26 0 -65 27 -65 44 0 8 26 20 63
29 147 38 233 63 244 70 6 4 9 17 7 30 -4 15 1 11 15 -13 29 -52 80 -95 130
-109 25 -7 54 -19 65 -26 38 -25 136 -65 136 -55 0 10 -104 89 -230 175 -47
31 -103 72 -125 89 -22 18 -56 38 -75 46 -19 7 -53 26 -76 41 -80 54 -309 148
-361 149 -30 0 -73 31 -73 52 0 4 -11 31 -24 60 -13 29 -50 112 -81 183 -31
72 -105 223 -165 336 -63 119 -121 242 -136 290 -44 142 -54 167 -83 203 -41
52 -129 124 -183 149 -45 22 -52 22 -158 12 -104 -10 -111 -12 -144 -44 -19
-18 -49 -61 -67 -95 -28 -54 -71 -109 -75 -96 -2 10 -91 -77 -123 -121 -18
-26 -42 -52 -54 -58 -12 -7 -38 -35 -57 -64 -33 -48 -233 -260 -384 -406 -38
-36 -101 -97 -140 -136 -92 -90 -132 -120 -184 -136 -23 -7 -47 -18 -53 -25
-16 -19 -4 -42 23 -46 21 -3 23 -7 20 -49 -4 -51 27 -140 60 -176 11 -11 42
-32 69 -44 27 -13 49 -26 49 -29 0 -3 -21 -18 -46 -33 -43 -26 -45 -29 -39
-60 4 -17 12 -38 18 -45 6 -8 13 -51 15 -98 4 -79 7 -86 34 -109 16 -14 34
-25 39 -25 5 0 9 -31 9 -69 0 -65 -2 -72 -38 -118 -70 -87 -143 -147 -208
-167 -32 -10 -101 -38 -153 -63 -80 -38 -98 -43 -118 -34 -31 14 -33 14 -27
-4 5 -11 0 -14 -17 -12 -13 2 -25 9 -27 15 -7 21 -20 13 -15 -8 5 -18 0 -20
-41 -20 -27 0 -46 5 -46 11 0 7 11 9 30 5 20 -3 29 -2 25 4 -4 6 1 17 9 26 9
8 20 23 26 32 8 14 11 15 19 3 5 -7 14 -10 20 -7 18 12 13 23 -14 30 -14 4
-25 11 -25 16 0 6 11 8 27 4 24 -6 25 -5 12 8 -7 9 -20 13 -28 10 -9 -3 -12
-1 -7 6 5 9 -7 12 -43 12 -39 0 -49 3 -45 14 3 8 0 17 -5 21 -6 3 -9 11 -6 16
4 5 -7 9 -24 9 -16 0 -33 -5 -36 -10 -12 -19 -25 1 -14 21 10 19 8 20 -28 13
l-38 -7 28 27 c15 14 24 26 18 26 -5 0 -13 -5 -16 -11 -9 -14 -30 -6 -30 12 0
9 -10 14 -28 13 -28 -1 -37 11 -14 19 6 2 -3 7 -20 11 -18 4 -35 12 -38 17 -4
5 1 6 9 3 10 -4 16 -1 16 10 0 8 -6 13 -12 11 -19 -7 -65 64 -49 74 9 6 6 18
-10 49 -13 23 -26 42 -31 42 -4 0 -8 15 -8 33 0 24 -3 28 -10 17 -5 -8 -15
-15 -22 -15 -7 0 -14 -10 -16 -22 -3 -18 -10 -23 -32 -23 -16 0 -31 -6 -33
-12 -4 -10 -8 -9 -16 2 -6 8 -18 15 -28 15 -10 0 -23 4 -29 8 -7 4 -17 0 -24
-8 -10 -12 -10 -18 0 -30 10 -13 9 -15 -12 -15 -22 0 -24 4 -20 35 3 22 0 35
-8 35 -7 0 -9 -8 -5 -19 3 -11 1 -22 -5 -26 -5 -3 -10 -1 -10 4 0 6 -4 11 -10
11 -5 0 -10 -15 -10 -34 0 -29 -3 -33 -26 -33 -22 0 -25 3 -20 22 6 24 -8 36
-32 28 -10 -4 -10 -8 -1 -19 6 -7 8 -21 5 -30 -4 -9 -1 -23 5 -30 18 -22 0
-38 -22 -18 -20 18 -26 60 -8 66 6 2 2 13 -10 27 -17 19 -26 22 -56 17 -19 -4
-35 -12 -35 -19 0 -8 -3 -8 -9 2 -7 10 -10 10 -16 1 -4 -7 -1 -16 6 -21 20
-13 39 -11 39 4 1 6 12 -1 25 -18 25 -31 33 -65 15 -65 -9 0 -14 20 -12 42 1
3 -5 9 -13 12 -11 4 -15 -2 -15 -18 0 -13 7 -26 15 -30 8 -3 15 -13 15 -21 0
-10 7 -16 18 -14 31 3 78 -3 60 -8 -10 -2 -18 -11 -18 -19 0 -16 -16 -19 -25
-5 -3 5 -18 12 -34 16 -18 4 -32 15 -36 28 -3 13 -8 17 -11 10 -3 -7 -12 -9
-20 -6 -9 3 -11 9 -6 12 5 3 13 17 17 30 7 22 5 23 -25 16 -25 -5 -31 -4 -28
6 6 17 -67 41 -99 33 -19 -5 -23 -2 -23 16 0 12 -4 18 -10 15 -6 -4 -8 -10 -5
-15 8 -13 -54 -4 -71 11 -8 6 -14 8 -14 4 0 -4 -7 -2 -16 6 -13 10 -17 10 -25
-2 -12 -19 -11 -29 2 -29 7 0 18 -8 25 -17 8 -11 13 -13 14 -5 0 7 12 12 28
11 17 -1 21 -3 9 -6 -27 -7 -14 -28 17 -26 20 1 27 -4 32 -23 7 -27 -3 -45
-14 -27 -4 6 -18 13 -32 14 -14 2 -30 11 -37 19 -10 13 -15 13 -44 -4 -27 -16
-31 -16 -26 -3 4 11 -4 18 -31 24 -22 6 -36 15 -34 23 2 7 -3 10 -11 7 -7 -2
-21 1 -32 9 -12 9 -22 10 -30 4 -15 -12 -58 -7 -62 7 -2 6 3 18 12 26 16 17
21 42 6 33 -5 -3 -14 1 -21 9 -7 8 -25 15 -40 15 -15 0 -33 7 -40 15 -7 8 -20
15 -28 15 -9 0 -31 14 -48 31 -18 17 -43 37 -55 43 -13 6 -29 22 -35 34 -24
48 -49 68 -83 66 -26 -2 -34 3 -41 21 -11 28 -34 37 -95 34 -41 -3 -49 1 -70
27 -24 30 -24 44 1 44 8 0 14 5 14 11 0 5 -4 7 -10 4 -5 -3 -16 -3 -22 2 -7 4
-19 8 -27 10 -8 1 -17 6 -20 11 -9 15 -74 52 -91 52 -20 0 -92 84 -95 110 0 3
-13 24 -28 47 -26 42 -53 130 -42 141 3 3 13 -2 23 -11 15 -16 15 -19 2 -27
-11 -7 -11 -10 -2 -10 7 0 11 -4 7 -9 -3 -6 0 -13 7 -18 7 -4 22 -26 33 -48
34 -68 79 -135 91 -135 18 0 23 62 8 99 -8 18 -14 42 -14 52 0 11 -4 19 -9 19
-11 0 -31 78 -24 96 3 8 0 14 -6 14 -19 0 -40 61 -31 86 6 15 4 26 -7 36 -16
17 -43 175 -37 221 2 17 -3 35 -11 44 -13 13 -15 6 -16 -51 -2 -91 -9 -112
-35 -102 -20 8 -17 -10 6 -42 14 -20 20 -45 21 -92 1 -36 6 -68 11 -71 5 -3
-9 -9 -33 -13 -43 -7 -63 -1 -41 13 8 5 7 11 -7 23 -10 8 -26 38 -36 64 -10
27 -26 67 -36 89 -39 86 -48 112 -54 160 -4 28 -12 55 -17 62 -5 6 -11 49 -14
95 -7 96 -42 218 -64 218 -4 0 -13 20 -20 45 -7 24 -17 42 -21 39 -5 -3 -6
-10 -3 -16 4 -6 7 -40 6 -74 0 -35 3 -64 8 -64 11 0 25 -138 22 -208 -2 -33 3
-65 13 -84 8 -17 15 -45 15 -62 1 -17 8 -49 16 -71 27 -73 66 -200 65 -217 0
-10 4 -18 10 -18 5 0 12 -18 15 -41 4 -22 13 -46 20 -54 20 -19 17 -25 -8 -25
-14 0 -31 12 -43 30 -11 16 -25 30 -32 30 -6 0 -15 9 -18 20 -3 11 -10 20 -15
20 -5 0 -24 14 -42 32 -23 22 -32 39 -29 56 2 20 -1 24 -14 18 -14 -5 -16 -2
-12 14 4 15 0 20 -14 20 -12 0 -23 10 -29 26 -6 14 -14 22 -20 19 -5 -3 -10 1
-10 10 0 8 -11 20 -24 25 -13 5 -27 18 -31 29 -6 19 -64 69 -75 64 -3 -2 -16
19 -30 46 -56 110 -65 126 -72 129 -5 2 -8 8 -8 14 0 9 -45 75 -65 93 -35 33
-85 101 -85 116 0 9 -19 35 -43 56 -24 21 -48 52 -54 69 -6 17 -22 43 -36 58
-14 15 -32 41 -41 59 -16 35 -76 103 -86 100 -4 -1 -13 9 -20 22 -13 25 -40
34 -40 15 0 -5 5 -10 11 -10 8 0 8 -4 0 -14 -9 -11 -5 -25 19 -65 16 -29 30
-55 30 -60 0 -4 11 -21 25 -37 14 -16 25 -32 25 -36 0 -3 23 -29 50 -57 32
-32 50 -59 50 -74 0 -13 11 -45 25 -71 28 -53 29 -56 16 -56 -5 0 -12 8 -15
18 -4 9 -26 39 -51 67 -25 27 -45 57 -45 67 0 19 -50 58 -74 58 -9 0 -16 4
-16 8 0 5 -12 23 -27 41 -34 41 -70 56 -90 39 -9 -7 -27 -14 -42 -16 -14 -2
-29 -10 -34 -17 -4 -8 -13 -12 -20 -9 -24 9 -79 -158 -127 -389 -6 -32 -14
-56 -16 -54 -6 6 21 166 36 217 56 188 62 458 14 552 -22 43 -25 33 -5 -24z
m5037 -435 c-8 -15 -15 -22 -16 -15 0 14 22 53 28 47 2 -2 -3 -16 -12 -32z
m-4456 -212 c0 -11 -3 -11 -15 -1 -8 7 -15 22 -15 33 0 20 0 20 15 1 8 -10 15
-25 15 -33z m30 -52 c0 -6 -4 -7 -10 -4 -5 3 -10 11 -10 16 0 6 5 7 10 4 6 -3
10 -11 10 -16z m-658 -558 c2 -60 -1 -85 -9 -88 -10 -4 -13 23 -12 114 1 136
17 117 21 -26z m1698 -331 c0 -5 -2 -10 -4 -10 -3 0 -8 5 -11 10 -3 6 -1 10 4
10 6 0 11 -4 11 -10z m3597 -89 c23 -20 56 -98 46 -113 -3 -5 3 -18 13 -29 20
-22 12 -38 -11 -19 -8 7 -15 8 -15 3 0 -5 11 -16 25 -23 14 -7 25 -18 25 -24
0 -6 -5 -5 -12 2 -7 7 -20 12 -29 12 -10 0 -20 6 -23 13 -5 10 -7 10 -12 0 -3
-7 -23 -13 -44 -13 -30 0 -39 4 -43 22 -4 12 -2 27 4 34 7 8 2 20 -15 39 -29
31 -42 80 -27 99 17 20 92 18 118 -3z m-3207 -193 c0 -12 -19 -19 -56 -23 -33
-3 -35 -2 -18 13 17 17 74 24 74 10z m-5 -58 c3 -6 17 -7 30 -4 12 3 26 1 30
-5 3 -6 11 -9 16 -5 13 8 79 -37 79 -55 0 -10 -9 -12 -37 -7 -21 3 -57 6 -80
6 -35 0 -43 3 -43 19 0 10 -7 24 -15 31 -8 7 -12 16 -9 21 7 12 21 11 29 -1z
m-95 -10 c0 -5 -4 -10 -10 -10 -5 0 -10 5 -10 10 0 6 5 10 10 10 6 0 10 -4 10
-10z m1315 -39 c3 -5 1 -12 -5 -16 -5 -3 -10 1 -10 9 0 18 6 21 15 7z m-138
-43 c-3 -8 -6 -5 -6 6 -1 11 2 17 5 13 3 -3 4 -12 1 -19z m-400 -20 c-3 -8 -6
-5 -6 6 -1 11 2 17 5 13 3 -3 4 -12 1 -19z m-62 -39 c0 -7 -8 -15 -17 -17 -18
-3 -25 18 -11 32 10 10 28 1 28 -15z m375 11 c0 -5 -9 -10 -21 -10 -11 0 -17
5 -14 10 3 6 13 10 21 10 8 0 14 -4 14 -10z m90 -40 c0 -5 -2 -10 -4 -10 -3 0
-8 5 -11 10 -3 6 -1 10 4 10 6 0 11 -4 11 -10z m4625 -210 c3 -6 -1 -7 -9 -4
-18 7 -21 14 -7 14 6 0 13 -4 16 -10z m-4361 -29 c4 -5 -3 -7 -14 -4 -23 6
-26 13 -6 13 8 0 17 -4 20 -9z m194 -94 c8 -6 9 -14 4 -19 -6 -6 -21 1 -38 18
-29 26 -29 27 -4 19 14 -4 31 -12 38 -18z m-2730 -1679 l27 -11 -25 -6 c-16
-4 -26 -15 -28 -29 -2 -12 -8 -22 -13 -22 -6 0 -9 10 -7 22 2 16 -5 24 -32 33
l-35 13 35 3 c33 4 35 6 40 49 l4 45 4 -43 c3 -36 8 -45 30 -54z m72 -129 c84
-13 169 -43 247 -85 87 -48 222 -162 230 -194 3 -14 13 -34 22 -45 9 -11 -20
17 -64 61 -133 134 -261 208 -416 240 -226 46 -464 -33 -668 -222 -75 -69 -81
-53 -8 20 176 175 428 262 657 225z m370 -39 c0 -5 -2 -10 -4 -10 -3 0 -8 5
-11 10 -3 6 -1 10 4 10 6 0 11 -4 11 -10z m-325 -46 c109 -25 221 -90 311
-179 70 -69 88 -94 132 -185 56 -117 70 -156 53 -146 -6 4 -11 16 -11 26 0 10
-4 22 -10 25 -5 3 -10 13 -10 20 0 19 -81 155 -93 155 -4 0 -1 -10 7 -22 9
-12 16 -27 16 -33 0 -5 -13 9 -28 32 -34 52 -140 162 -178 186 -131 81 -227
111 -349 110 -99 -2 -142 -6 -152 -16 -3 -4 -13 -7 -20 -7 -19 0 -183 -80
-183 -89 0 -4 -15 -15 -32 -25 -46 -26 -108 -87 -101 -99 3 -6 1 -7 -5 -3 -7
4 -12 1 -12 -8 0 -9 -11 -23 -24 -32 -14 -9 -47 -60 -75 -117 -28 -55 -51 -93
-51 -83 0 10 23 63 52 119 42 83 67 117 132 183 178 178 397 243 631 188z
m-810 -64 c34 0 41 -18 8 -22 -23 -2 -29 -9 -34 -38 -4 -20 -7 -26 -8 -13 -2
38 -13 53 -37 53 -13 0 -24 4 -24 10 0 5 6 7 14 4 14 -6 45 20 47 39 1 7 4 2
6 -10 3 -16 11 -23 28 -23z m1347 18 c2 -16 11 -24 28 -27 l25 -4 -25 -6 c-19
-5 -26 -15 -30 -41 l-6 -35 -7 38 c-5 22 -14 37 -22 37 -8 0 -15 5 -15 10 0 6
9 10 21 10 16 0 19 4 14 20 -3 11 -2 20 4 20 5 0 11 -10 13 -22z m-67 -28 c3
-5 1 -10 -4 -10 -6 0 -11 5 -11 10 0 6 2 10 4 10 3 0 8 -4 11 -10z m-695 -8
c0 -5 -34 -19 -75 -31 -77 -24 -161 -75 -227 -139 -21 -20 -38 -32 -38 -26 0
14 77 86 131 122 26 17 80 43 120 56 82 28 89 30 89 18z m212 -12 c24 -7 69
-25 100 -42 60 -32 177 -131 167 -142 -3 -3 -27 13 -53 36 -64 58 -157 114
-222 133 -29 8 -56 20 -60 27 -5 7 -2 9 9 5 9 -3 35 -11 59 -17z m-14 -87
c150 -102 137 -92 129 -100 -4 -3 -63 31 -132 77 l-125 83 -125 -83 c-69 -46
-128 -81 -131 -77 -4 4 243 187 254 187 2 0 61 -39 130 -87z m93 10 c13 -17
13 -17 -6 -3 -11 8 -22 16 -24 17 -2 2 0 3 6 3 6 0 17 -8 24 -17z m4387 -66
c9 -10 -1 -20 -44 -45 -31 -18 -60 -32 -65 -32 -5 0 -9 -4 -9 -9 0 -5 -8 -11
-17 -14 -23 -8 -106 -57 -113 -67 -3 -4 -25 -18 -50 -30 -25 -13 -70 -40 -101
-61 -30 -20 -71 -46 -90 -57 -19 -11 -72 -43 -119 -72 -101 -63 -133 -77 -225
-101 -143 -38 -206 -20 -257 71 -24 43 -26 55 -24 146 2 83 7 111 32 172 29
75 47 91 52 50 9 -75 26 -110 76 -153 45 -40 56 -45 99 -45 27 0 81 11 120 24
40 13 124 36 187 51 63 15 151 43 195 62 113 49 285 105 320 104 22 0 25 3 15
9 -8 6 -10 10 -4 10 6 0 16 -6 22 -13z m-4562 -23 c47 -36 43 -50 -6 -19 -22
14 -42 25 -45 25 -3 0 -18 -11 -33 -25 -27 -25 -42 -31 -42 -17 0 11 63 61 78
62 7 0 29 -12 48 -26z m-141 -94 c40 -27 76 -54 80 -60 9 -14 19 -13 41 8 35
32 145 103 155 100 5 -2 -34 -32 -87 -67 -67 -45 -100 -62 -109 -55 -7 5 -47
33 -89 62 -70 48 -85 62 -71 62 3 0 39 -22 80 -50z m66 33 c13 -16 12 -17 -3
-4 -10 7 -18 15 -18 17 0 8 8 3 21 -13z m-343 -45 c60 -38 139 -93 152 -108 3
-3 40 -34 83 -69 79 -64 103 -90 45 -50 -18 13 -35 26 -38 29 -22 27 -134 96
-225 140 -60 28 -112 53 -113 55 -7 7 9 45 19 45 5 0 40 -19 77 -42z m830 20
c3 -16 -84 -75 -141 -97 -40 -15 -136 -78 -180 -117 -20 -19 -42 -34 -48 -34
-5 0 9 17 34 38 24 20 63 54 88 75 62 53 221 158 234 154 5 -2 11 -11 13 -19z
m-671 -48 c24 -16 46 -30 49 -30 11 0 125 -82 120 -87 -2 -3 -15 4 -27 16 -13
12 -34 21 -47 21 -14 0 -41 15 -61 33 -21 17 -51 42 -67 54 -44 33 -18 27 33
-7z m417 -25 c-10 -8 -25 -15 -31 -15 -7 0 -13 -4 -13 -10 0 -5 -10 -10 -22
-10 -19 0 -20 -2 -8 -10 12 -8 12 -10 -5 -10 -11 0 -42 -16 -70 -35 -27 -19
-51 -32 -54 -29 -2 2 -2 6 0 8 17 14 187 124 199 128 23 8 26 -1 4 -17z m676
-55 c0 -5 -2 -10 -4 -10 -3 0 -8 5 -11 10 -3 6 -1 10 4 10 6 0 11 -4 11 -10z
m-949 -47 c13 -17 13 -17 -6 -3 -11 8 -22 16 -24 17 -2 2 0 3 6 3 6 0 17 -8
24 -17z m-600 -44 c-9 -23 -10 -23 -10 -2 -1 12 2 30 6 40 6 15 8 15 11 2 1
-8 -2 -26 -7 -40z m1336 9 c-3 -7 -5 -2 -5 12 0 14 2 19 5 13 2 -7 2 -19 0
-25z m-322 -91 c-36 -88 -153 -103 -212 -27 -30 38 6 72 37 35 7 -8 27 -15 45
-15 27 0 41 8 68 40 36 43 50 51 40 23 -6 -16 -5 -16 11 -4 9 8 15 20 12 27
-2 6 -2 15 2 19 15 15 12 -62 -3 -98z m-645 48 c34 -55 85 -71 126 -40 25 19
54 19 54 -1 0 -44 -53 -84 -112 -84 -67 0 -134 68 -125 128 l3 27 11 -25 c10
-23 12 -23 18 -6 5 11 3 21 -6 27 -9 5 -10 9 -2 9 6 0 21 -16 33 -35z m328
-87 c12 -24 42 -80 67 -125 25 -46 41 -83 35 -83 -5 0 -10 5 -10 10 0 13 -72
122 -77 116 -2 -2 6 -20 18 -40 31 -54 16 -55 -23 -2 -18 25 -35 45 -38 45 -3
0 -18 -17 -33 -39 -16 -22 -33 -40 -39 -40 -6 0 -6 6 2 15 7 9 10 18 7 21 -3
3 -24 -23 -46 -58 -60 -93 -50 -62 22 71 35 64 67 124 70 134 10 27 21 20 45
-25z m-943 22 c3 -5 0 -7 -8 -4 -8 3 -22 -2 -31 -11 -9 -9 -16 -12 -16 -6 0
10 28 30 42 31 4 0 10 -4 13 -10z m1865 -1 c12 -9 12 -10 -4 -5 -11 4 -26 0
-37 -10 -11 -10 -19 -12 -19 -6 0 10 27 31 40 32 3 0 12 -5 20 -11z m-1623
-76 c-3 -10 -5 -4 -5 12 0 17 2 24 5 18 2 -7 2 -21 0 -30z m1332 3 c-5 -19 -9
-38 -7 -43 1 -4 -4 -27 -11 -51 -7 -24 -10 -51 -8 -60 3 -12 5 -11 6 5 0 12 6
25 11 28 16 10 2 -40 -30 -110 -34 -75 -101 -158 -173 -213 l-55 -43 -88 3
c-75 3 -89 6 -92 21 -2 11 8 23 28 35 138 75 252 194 307 320 15 34 31 62 36
62 11 0 1 -30 -40 -119 -28 -62 -51 -92 -139 -179 -75 -74 -102 -107 -93 -113
27 -16 203 158 259 256 37 65 70 150 70 182 0 27 10 53 20 53 5 0 4 -15 -1
-34z m-1248 -19 c-13 -13 -26 -3 -16 12 3 6 11 8 17 5 6 -4 6 -10 -1 -17z
m-63 -36 c-15 -5 -15 -9 -3 -31 13 -22 14 -23 15 -5 0 11 14 -9 30 -44 53
-112 150 -232 238 -292 78 -55 67 -19 -20 65 -71 68 -168 190 -168 211 0 3
-10 26 -21 50 -12 25 -20 48 -17 50 9 9 25 -14 63 -90 54 -109 175 -228 295
-290 17 -9 27 -21 26 -32 -2 -15 -15 -18 -84 -21 -93 -3 -112 4 -185 68 -82
72 -170 212 -180 285 -1 13 -6 27 -10 31 -22 22 2 71 27 56 5 -3 2 -8 -6 -11z
m1542 -140 c0 -6 -4 -13 -10 -16 -5 -3 -10 1 -10 9 0 9 5 16 10 16 6 0 10 -4
10 -9z m-1760 -21 c0 -5 -5 -10 -11 -10 -5 0 -7 5 -4 10 3 6 8 10 11 10 2 0 4
-4 4 -10z m981 -46 c67 -37 69 -56 1 -22 -85 43 -167 38 -245 -15 -34 -23 -50
-13 -17 11 57 42 86 52 148 52 50 0 75 -6 113 -26z m-635 -186 c13 -13 24 -26
24 -30 0 -10 -115 -10 -159 -2 -25 5 -29 9 -20 20 9 11 6 14 -14 14 -14 0 -29
5 -32 10 -4 6 27 10 86 10 81 0 94 -3 115 -22z m1242 10 c-44 -12 -50 -27 -10
-29 l27 -1 -30 -8 c-38 -10 -205 -12 -205 -3 0 4 10 17 22 30 20 21 29 23 127
22 90 -1 100 -3 69 -11z m-832 -44 c19 -13 24 -24 23 -53 -2 -20 -7 -41 -12
-48 -5 -7 -6 -21 -2 -33 4 -12 2 -26 -3 -33 -8 -9 4 -11 49 -9 l59 4 0 79 c0
46 4 79 10 79 6 0 10 -33 10 -80 l0 -80 41 0 40 0 -6 78 c-3 42 -2 83 2 89 10
14 47 22 51 11 7 -22 0 -58 -13 -72 -11 -10 -15 -37 -16 -93 0 -57 -3 -72 -9
-55 -9 21 -15 22 -120 22 l-110 0 -1 -27 c0 -16 -4 -37 -8 -48 -6 -16 -9 -10
-14 25 -5 36 -11 217 -8 253 1 11 9 9 37 -9z m-96 -56 c0 -7 -3 -23 -6 -35 -6
-21 -12 -23 -75 -23 l-69 0 0 -36 0 -36 68 3 c39 3 68 0 70 -6 3 -15 -127 -19
-144 -4 -8 6 -14 22 -14 35 0 13 -4 24 -10 24 -5 0 -10 -18 -10 -40 0 -22 -4
-40 -10 -40 -6 0 -10 28 -10 65 0 36 -4 65 -9 65 -5 0 -26 -22 -46 -50 -38
-51 -60 -70 -31 -25 20 30 20 51 1 59 -8 3 -14 1 -12 -4 1 -4 -14 -28 -33 -52
-20 -23 -67 -85 -105 -135 -38 -51 -71 -91 -73 -89 -2 3 37 59 87 125 107 141
114 155 78 146 -28 -7 -72 12 -101 44 l-19 21 236 0 c183 0 237 -3 237 -12z
m620 5 c0 -21 -71 -63 -105 -63 -35 0 -36 -1 -33 -32 l3 -33 68 0 c48 0 67 -4
67 -13 0 -10 -18 -12 -72 -10 l-73 3 -3 48 c-4 56 -22 64 -22 10 0 -21 -5 -45
-10 -53 -8 -12 -10 -11 -10 6 0 12 -3 49 -6 83 l-7 61 102 0 c55 0 101 -3 101
-7z m250 -13 c-14 -11 -34 -27 -45 -36 -12 -9 -31 -13 -45 -10 -38 7 -51 -5
-42 -39 8 -28 9 -29 70 -26 49 2 62 -1 62 -12 0 -20 -38 -28 -94 -21 -39 6
-46 10 -46 29 0 32 -25 51 -28 22 -1 -12 -6 -42 -11 -67 -9 -45 -9 -45 -10 -9
-1 20 -4 70 -7 112 l-7 77 114 0 114 -1 -25 -19z m-1330 -35 c23 -13 15 -14
-87 -15 -102 0 -133 6 -116 24 13 13 178 6 203 -9z m1545 0 c0 -6 -45 -11
-110 -13 -100 -2 -108 -1 -90 13 15 11 42 14 110 12 52 -1 90 -6 90 -12z m-77
-92 c-10 -2 -26 -2 -35 0 -10 3 -2 5 17 5 19 0 27 -2 18 -5z m-681 -90 c-3
-10 -5 -4 -5 12 0 17 2 24 5 18 2 -7 2 -21 0 -30z m-330 -66 c-3 -9 -63 -12
-213 -12 -115 0 -212 1 -217 3 -29 12 28 17 218 19 160 1 215 -2 212 -10z
m623 -2 c0 -12 -14 -15 -75 -14 -57 1 -75 5 -75 15 0 11 18 14 75 14 60 0 75
-3 75 -15z m165 -135 c-109 -12 -183 -11 -165 0 8 5 65 9 125 8 107 -1 108 -1
40 -8z m-247 -7 c-10 -2 -26 -2 -35 0 -10 3 -2 5 17 5 19 0 27 -2 18 -5z m55
0 c-7 -2 -19 -2 -25 0 -7 3 -2 5 12 5 14 0 19 -2 13 -5z m-388 -124 c-4 -5 -2
-9 4 -9 5 0 12 6 14 13 3 6 6 -26 6 -73 1 -86 -8 -118 -28 -106 -7 5 -11 43
-11 102 0 62 4 93 10 89 6 -4 8 -11 5 -16z m6292 -3241 c-3 -8 -6 -5 -6 6 -1
11 2 17 5 13 3 -3 4 -12 1 -19z m-8408 -1485 c1 -73 -1 -83 -16 -83 -12 0 -14
-3 -7 -8 8 -5 12 -59 13 -164 0 -86 1 -160 2 -165 1 -4 0 -57 -1 -118 -3 -103
-4 -99 -10 65 -7 179 -21 260 -44 260 -19 0 -41 -28 -65 -84 -12 -27 -23 -47
-26 -44 -3 3 9 38 26 79 17 41 31 88 30 106 0 18 7 49 16 70 8 21 17 58 20 83
2 25 8 47 13 48 6 2 10 12 10 22 0 10 6 42 13 72 l12 53 7 -55 c3 -30 6 -92 7
-137z m-167 -395 c-8 -8 -9 -4 -5 13 4 13 8 18 11 10 2 -7 -1 -18 -6 -23z
m-19 -90 c-16 -71 -25 -99 -29 -95 -7 7 19 117 27 117 4 0 5 -10 2 -22z m164
-235 c-3 -10 -5 -2 -5 17 0 19 2 27 5 18 2 -10 2 -26 0 -35z m-10 -175 c-3 -7
-5 -2 -5 12 0 14 2 19 5 13 2 -7 2 -19 0 -25z m-15 -213 l-9 -110 -2 96 c-1
103 12 227 17 159 1 -19 -2 -84 -6 -145z m-25 -187 c-3 -7 -5 -2 -5 12 0 14 2
19 5 13 2 -7 2 -19 0 -25z m-20 -385 c-3 -10 -5 -4 -5 12 0 17 2 24 5 18 2 -7
2 -21 0 -30z m8181 -2053 c6 0 12 -4 12 -9 0 -11 -66 -26 -101 -23 -15 2 -34
-4 -43 -13 -9 -9 -16 -12 -16 -6 0 6 -7 11 -15 11 -8 0 -15 -6 -15 -14 0 -8
-10 -16 -22 -18 -14 -2 -24 -11 -26 -23 -2 -18 -2 -18 8 -2 6 9 16 17 21 17 6
0 8 -4 4 -9 -3 -6 3 -15 12 -21 17 -11 17 -11 1 -6 -12 3 -22 -2 -29 -17 -16
-30 -32 -39 -44 -24 -5 6 -14 12 -20 12 -5 0 -32 6 -58 14 -35 10 -52 22 -63
43 -13 26 -13 29 3 34 10 3 29 10 43 16 14 6 76 13 138 16 61 2 112 8 112 13
0 10 39 18 65 13 11 -2 26 -4 33 -4z m-48 -50 c0 -5 -12 -10 -27 -9 l-28 1 25
8 c14 4 26 8 28 9 1 1 2 -3 2 -9z m-3593 -2542 c-3 -8 -6 -5 -6 6 -1 11 2 17
5 13 3 -3 4 -12 1 -19z m53 -498 c0 -5 -4 -10 -10 -10 -5 0 -10 5 -10 10 0 6
5 10 10 10 6 0 10 -4 10 -10z m-3810 -1524 c0 -3 -4 -8 -10 -11 -5 -3 -10 -1
-10 4 0 6 5 11 10 11 6 0 10 -2 10 -4z m-47 -518 c-6 -50 -25 -108 -36 -108
-5 0 -7 6 -4 14 3 8 11 34 17 57 19 68 19 69 23 69 2 0 2 -15 0 -32z m2554
-7845 c12 -8 26 -12 31 -9 5 3 24 1 43 -5 19 -6 45 -12 58 -13 22 -3 40 -21
41 -38 0 -13 -28 -9 -37 5 -10 14 -70 37 -101 37 -21 0 -22 -5 -22 -70 0 -46
-4 -70 -11 -70 -8 0 -10 17 -6 53 9 86 1 105 -44 112 -22 4 -37 11 -33 16 6
11 51 1 81 -18z m53 -83 c0 -5 -4 -10 -10 -10 -5 0 -10 5 -10 10 0 6 5 10 10
10 6 0 10 -4 10 -10z m100 -52 c0 -6 -10 -8 -22 -5 -12 3 -31 1 -42 -5 -18
-10 -19 -9 -9 4 9 10 10 17 2 25 -9 9 0 9 30 1 22 -6 41 -15 41 -20z m3000
-162 c0 -63 7 -86 25 -86 10 0 14 -21 15 -82 1 -46 2 -132 4 -193 1 -60 0
-123 -4 -139 -10 -50 -25 -39 -25 17 0 42 -5 57 -25 78 -43 44 -61 70 -55 79
3 4 0 14 -7 22 -7 7 -18 24 -24 38 -6 14 -25 54 -42 90 -17 35 -29 66 -26 69
2 3 18 -11 34 -31 18 -22 41 -37 59 -40 33 -5 30 -16 46 165 8 80 25 90 25 13z
m1790 3 c0 -11 -4 -18 -10 -14 -5 3 -7 12 -3 20 7 21 13 19 13 -6z m-1520 -45
c0 -9 -32 -33 -44 -34 -5 0 -1 9 9 20 18 20 35 26 35 14z m1424 -56 c-4 -6
-10 -5 -15 3 -14 22 -10 33 6 19 8 -7 12 -17 9 -22z m145 9 c-1 -7 1 -20 6
-30 9 -22 1 -32 -20 -24 -15 6 -21 57 -9 70 9 9 25 -2 23 -16z m-1469 9 c0 -3
-4 -8 -10 -11 -5 -3 -10 -1 -10 4 0 6 5 11 10 11 6 0 10 -2 10 -4z m-660 -16
c0 -5 -5 -10 -11 -10 -5 0 -7 5 -4 10 3 6 8 10 11 10 2 0 4 -4 4 -10z m-2302
-50 c1 -30 -12 -48 -23 -31 -7 12 4 61 15 61 4 0 7 -13 8 -30z m2862 -14 c0
-2 -7 -7 -16 -10 -8 -3 -12 -2 -9 4 6 10 25 14 25 6z m40 -16 c0 -5 -5 -10
-11 -10 -5 0 -7 5 -4 10 3 6 8 10 11 10 2 0 4 -4 4 -10z m1477 -18 c13 -18 17
-42 7 -42 -10 0 -34 28 -34 39 0 6 -5 11 -11 11 -5 0 -7 -4 -4 -10 3 -5 1 -10
-4 -10 -6 0 -11 2 -11 4 0 2 -3 12 -7 22 -5 14 -2 16 22 10 16 -4 35 -15 42
-24z m-1419 1 c-5 -25 -28 -28 -28 -4 0 12 6 21 16 21 9 0 14 -7 12 -17z m206
8 c3 -5 -1 -12 -10 -15 -22 -9 -24 -8 -24 9 0 16 25 21 34 6z m-864 -11 c0 -5
-4 -10 -10 -10 -5 0 -10 5 -10 10 0 6 5 10 10 10 6 0 10 -4 10 -10z m1929 -31
c30 -30 41 -59 21 -59 -5 0 -10 7 -10 15 0 9 -8 19 -17 22 -19 7 -42 32 -43
46 0 15 20 6 49 -24z m227 1 c0 -11 -6 -20 -13 -20 -14 0 -18 22 -6 33 12 12
19 7 19 -13z m-4493 -32 c-3 -16 -10 -28 -15 -28 -6 0 -8 10 -4 23 3 12 6 29
6 37 0 9 3 10 9 5 5 -6 7 -22 4 -37z m3137 38 c0 -3 -4 -8 -10 -11 -5 -3 -10
-1 -10 4 0 6 5 11 10 11 6 0 10 -2 10 -4z m-210 -10 c0 -3 -4 -8 -10 -11 -5
-3 -10 -1 -10 4 0 6 5 11 10 11 6 0 10 -2 10 -4z m-104 -44 c-9 -8 -26 10 -26
26 1 15 2 15 15 -2 8 -11 13 -21 11 -24z m69 8 c-10 -17 -45 -32 -45 -20 0 6
10 15 23 20 29 12 29 12 22 0z m195 -5 c-7 -9 -15 -13 -17 -11 -7 7 7 26 19
26 6 0 6 -6 -2 -15z m1300 5 c0 -5 -4 -10 -10 -10 -5 0 -10 5 -10 10 0 6 5 10
10 10 6 0 10 -4 10 -10z m36 -16 c-4 -9 -9 -15 -11 -12 -3 3 -3 13 1 22 4 9 9
15 11 12 3 -3 3 -13 -1 -22z m-1416 1 c-7 -9 -15 -13 -17 -11 -7 7 7 26 19 26
6 0 6 -6 -2 -15z m-210 -19 c0 -3 -4 -8 -10 -11 -5 -3 -10 -1 -10 4 0 6 5 11
10 11 6 0 10 -2 10 -4z m270 0 c0 -2 -12 -12 -27 -21 l-28 -18 19 21 c17 20
36 29 36 18z m-243 -31 c-7 -14 -20 -25 -29 -25 -25 0 -23 21 2 27 11 3 20 9
20 14 0 5 4 9 9 9 5 0 4 -11 -2 -25z m-2876 -8 c-10 -9 -11 -8 -5 6 3 10 9 15
12 12 3 -3 0 -11 -7 -18z m2979 -7 c0 -5 -13 -8 -30 -8 -23 1 -27 4 -20 13 11
13 50 9 50 -5z m-550 0 c0 -5 -4 -10 -10 -10 -5 0 -10 5 -10 10 0 6 5 10 10
10 6 0 10 -4 10 -10z m2117 -6 c-3 -3 -12 -4 -19 -1 -8 3 -5 6 6 6 11 1 17 -2
13 -5z m-1317 -14 c0 -5 -4 -10 -10 -10 -5 0 -10 5 -10 10 0 6 5 10 10 10 6 0
10 -4 10 -10z m-3250 -14 c0 -8 -4 -17 -8 -20 -13 -8 -35 11 -28 23 10 16 36
14 36 -3z m-657 -54 c3 -15 3 -29 1 -31 -9 -9 -34 24 -34 45 0 24 -14 32 -24
15 -7 -11 -46 -22 -46 -13 0 4 12 14 28 23 23 13 30 13 48 2 12 -8 24 -26 27
-41z m3582 28 c-17 -19 -55 -33 -55 -21 0 4 11 13 25 19 14 6 25 16 25 22 0 6
5 8 11 5 7 -5 5 -13 -6 -25z m255 20 c0 -5 -10 -10 -22 -9 -22 0 -22 1 -3 9
11 5 21 9 23 9 1 1 2 -3 2 -9z m-3570 -36 c0 -8 9 -43 20 -77 11 -34 21 -81
23 -104 2 -39 4 -42 27 -36 13 4 31 6 40 6 19 0 27 7 118 95 41 39 79 72 84
72 4 0 8 7 8 15 0 8 5 15 10 15 31 0 8 -33 -165 -232 -50 -57 -108 -127 -130
-155 -22 -29 -45 -52 -51 -53 -7 0 -26 -23 -44 -50 -18 -28 -38 -49 -44 -47
-7 2 -11 59 -12 178 -2 160 -1 175 17 187 12 8 19 25 19 47 0 18 8 50 19 72
10 21 24 51 30 66 11 28 31 29 31 1z m3395 -4 c3 -5 1 -10 -4 -10 -6 0 -11 5
-11 10 0 6 2 10 4 10 3 0 8 -4 11 -10z m-3793 -80 c39 -38 75 -70 79 -70 5 0
9 -6 9 -14 0 -11 -6 -11 -35 2 -19 9 -35 21 -35 28 0 6 -12 20 -27 29 -34 21
-72 65 -73 83 0 21 9 14 82 -58z m-209 33 c20 -16 48 -36 62 -46 29 -21 60
-65 52 -73 -3 -3 -18 6 -34 20 -15 14 -31 26 -36 26 -11 0 -97 81 -97 91 0 16
16 10 53 -18z m3877 1 c0 -8 -5 -12 -10 -9 -6 4 -8 11 -5 16 9 14 15 11 15 -7z
m70 -14 c0 -5 -5 -10 -11 -10 -5 0 -7 5 -4 10 3 6 8 10 11 10 2 0 4 -4 4 -10z
m50 0 c0 -5 -5 -10 -11 -10 -5 0 -7 5 -4 10 3 6 8 10 11 10 2 0 4 -4 4 -10z
m-3860 -40 c0 -5 -4 -10 -10 -10 -5 0 -10 5 -10 10 0 6 5 10 10 10 6 0 10 -4
10 -10z m18 -96 c-10 -10 -28 6 -28 24 0 15 1 15 17 -1 9 -9 14 -19 11 -23z
m188 2 c10 -8 16 -17 12 -21 -4 -4 -17 2 -29 14 -26 24 -13 29 17 7z m54 -43
c0 -33 -17 -21 -22 17 -4 24 -2 27 9 19 7 -7 13 -22 13 -36z m-60 -43 c0 -5
-3 -10 -7 -10 -5 0 -18 -3 -30 -6 -17 -5 -23 -2 -23 10 0 11 9 16 30 16 17 0
30 -4 30 -10z m-115 -40 c3 -5 1 -10 -4 -10 -6 0 -11 5 -11 10 0 6 2 10 4 10
3 0 8 -4 11 -10z m135 1 c0 -13 -28 -22 -35 -11 -3 4 1 11 7 13 20 8 28 8 28
-2z m50 -7 c0 -8 -4 -12 -10 -9 -5 3 -10 10 -10 16 0 5 5 9 10 9 6 0 10 -7 10
-16z m-22 -32 c2 -7 -3 -12 -12 -12 -9 0 -16 7 -16 16 0 17 22 14 28 -4z
m-131 -28 c-3 -3 -12 -4 -19 -1 -8 3 -5 6 6 6 11 1 17 -2 13 -5z m83 -40 c0
-8 -5 -12 -10 -9 -6 4 -8 11 -5 16 9 14 15 11 15 -7z m5490 -24 c0 -5 -4 -10
-10 -10 -5 0 -10 5 -10 10 0 6 5 10 10 10 6 0 10 -4 10 -10z m-4870 -3 c0 -2
-10 -12 -21 -23 -22 -19 -22 -19 -10 4 10 18 31 31 31 19z m2590 -53 c0 -8 -5
-12 -10 -9 -6 4 -8 11 -5 16 9 14 15 11 15 -7z m-2679 -135 c11 -5 17 -14 15
-18 -9 -13 -56 0 -56 15 0 17 14 18 41 3z m129 -3 c0 -16 -19 -25 -37 -19 -19
7 -16 21 5 26 29 8 32 7 32 -7z m27 -48 c-3 -8 -6 -5 -6 6 -1 11 2 17 5 13 3
-3 4 -12 1 -19z m-361 -75 c-10 -10 -19 5 -10 18 6 11 8 11 12 0 2 -7 1 -15
-2 -18z m65 -23 c5 0 9 -4 9 -10 0 -16 -26 -12 -41 7 -12 15 -12 16 4 10 10
-4 23 -7 28 -7z m-101 -50 c0 -21 -15 -27 -25 -10 -7 12 2 30 16 30 5 0 9 -9
9 -20z m-87 -60 c25 -23 28 -30 15 -30 -10 0 -23 9 -30 20 -7 11 -18 20 -25
20 -7 0 -13 5 -13 10 0 18 21 10 53 -20z m3181 -6 c3 -8 2 -12 -4 -9 -6 3 -10
10 -10 16 0 14 7 11 14 -7z m-3230 -69 c16 -12 17 -15 4 -15 -8 0 -21 7 -28
15 -16 19 -1 19 24 0z m34 -113 c2 -7 -3 -12 -12 -12 -9 0 -16 7 -16 16 0 17
22 14 28 -4z m370 -27 c-6 -14 -18 -25 -26 -25 -8 0 -20 -6 -26 -14 -14 -18
-56 -31 -56 -17 0 6 14 17 30 26 17 9 30 20 30 26 0 9 33 27 52 28 4 1 2 -10
-4 -24z m-408 -51 c0 -9 -7 -14 -17 -12 -25 5 -28 28 -4 28 12 0 21 -6 21 -16z
m280 -34 c0 -5 -7 -10 -15 -10 -8 0 -15 5 -15 10 0 6 7 10 15 10 8 0 15 -4 15
-10z m-84 -35 c-22 -17 -46 -20 -46 -6 0 11 18 19 45 20 20 0 20 0 1 -14z
m-376 -464 c0 -9 -89 -54 -130 -65 -14 -4 1 7 33 23 33 16 64 34 70 40 13 13
27 14 27 2z m-177 -88 c-7 -2 -21 -2 -30 0 -10 3 -4 5 12 5 17 0 24 -2 18 -5z"/>
<path d="M9465 28350 c3 -5 8 -10 11 -10 2 0 4 5 4 10 0 6 -5 10 -11 10 -5 0
-7 -4 -4 -10z"/>
<path d="M4922 25414 c10 -10 20 -16 22 -13 3 3 -5 11 -17 18 -21 13 -21 12
-5 -5z"/>
<path d="M5081 23994 c0 -11 3 -14 6 -6 3 7 2 16 -1 19 -3 4 -6 -2 -5 -13z"/>
<path d="M10790 15453 c0 -15 19 -37 26 -31 3 4 -1 14 -10 23 -9 9 -16 13 -16
8z"/>
<path d="M4463 30215 c0 -8 4 -12 9 -9 4 3 8 9 8 15 0 5 -4 9 -8 9 -5 0 -9 -7
-9 -15z"/>
<path d="M4480 30189 c0 -5 5 -7 10 -4 6 3 10 8 10 11 0 2 -4 4 -10 4 -5 0
-10 -5 -10 -11z"/>
<path d="M7077 30113 c-3 -5 -1 -17 4 -28 7 -17 8 -17 8 8 1 27 -4 34 -12 20z"/>
<path d="M5304 29954 c3 -9 6 -20 6 -25 0 -6 4 -8 9 -5 12 8 2 46 -11 46 -6 0
-7 -7 -4 -16z"/>
<path d="M8346 29681 c-3 -5 1 -14 9 -21 13 -10 15 -9 15 9 0 21 -14 28 -24
12z"/>
<path d="M8352 29631 c-6 -4 -11 -20 -11 -36 1 -57 -6 -123 -13 -131 -12 -11
-10 -44 2 -44 6 0 8 -22 4 -57 -8 -78 -15 -96 -24 -58 -6 26 -8 22 -14 -30 -8
-72 -27 -109 -56 -113 -17 -3 -21 -8 -16 -25 4 -12 15 -55 26 -96 22 -86 40
-113 40 -60 1 58 26 183 38 187 17 5 15 22 -3 22 -8 0 -15 4 -15 8 0 5 10 8
21 8 12 -1 23 6 24 14 2 8 5 31 9 51 3 20 8 43 11 52 4 8 1 26 -6 38 -9 17 -9
24 -1 27 8 2 10 23 6 64 -4 35 -2 63 4 67 14 9 27 55 13 47 -11 -7 -14 3 -12
41 2 24 -9 35 -27 24z"/>
<path d="M8311 29354 c0 -11 3 -14 6 -6 3 7 2 16 -1 19 -3 4 -6 -2 -5 -13z"/>
<path d="M7498 29133 c7 -3 16 -2 19 1 4 3 -2 6 -13 5 -11 0 -14 -3 -6 -6z"/>
<path d="M6658 29093 c7 -3 16 -2 19 1 4 3 -2 6 -13 5 -11 0 -14 -3 -6 -6z"/>
<path d="M6236 29018 c3 -4 -2 -8 -10 -8 -24 0 -19 -19 7 -30 12 -5 16 -9 9
-9 -7 -1 -10 -5 -7 -11 3 -5 -4 -10 -17 -11 -18 -1 -15 -3 12 -11 28 -8 36 -7
47 8 8 12 9 22 2 35 -6 13 -6 19 1 19 23 0 8 18 -19 22 -17 2 -28 1 -25 -4z"/>
<path d="M6090 28993 c0 -48 37 -110 41 -70 5 38 3 87 -3 87 -3 0 -13 3 -22 6
-12 5 -16 -1 -16 -23z"/>
<path d="M10415 28966 c27 -64 71 -131 90 -135 13 -2 7 10 -22 45 -22 27 -46
64 -53 82 -7 18 -16 35 -21 38 -5 2 -2 -11 6 -30z"/>
<path d="M6195 28970 c3 -5 10 -10 16 -10 5 0 9 5 9 10 0 6 -7 10 -16 10 -8 0
-12 -4 -9 -10z"/>
<path d="M6873 28934 c-4 -11 2 -23 18 -35 21 -16 25 -17 36 -3 6 9 21 14 32
12 11 -2 21 2 23 7 2 6 -14 11 -34 13 -21 2 -38 7 -38 13 0 16 -30 10 -37 -7z"/>
<path d="M7020 28940 c0 -5 7 -10 16 -10 8 0 13 -4 10 -8 -2 -4 -1 -14 5 -22
7 -12 9 -11 9 6 0 20 -17 44 -32 44 -4 0 -8 -4 -8 -10z"/>
<path d="M6290 28919 c0 -5 9 -9 20 -9 11 0 20 -4 20 -9 0 -5 14 -3 30 5 17 9
30 17 30 18 0 1 -22 3 -50 3 -27 0 -50 -3 -50 -8z"/>
<path d="M7005 28900 c3 -5 8 -10 11 -10 2 0 4 5 4 10 0 6 -5 10 -11 10 -5 0
-7 -4 -4 -10z"/>
<path d="M6403 28893 c2 -5 -7 -19 -20 -32 -22 -23 -23 -23 -23 -4 0 31 -54
39 -91 13 -15 -12 -39 -20 -51 -19 -59 5 -62 -1 -15 -31 26 -16 52 -30 57 -30
6 0 10 -4 10 -9 0 -4 11 -6 25 -3 16 3 25 0 25 -9 0 -8 9 -4 23 9 23 22 48 29
46 15 -4 -23 3 -33 24 -33 31 0 38 -9 26 -31 -6 -12 -21 -19 -41 -19 l-31 0
29 -30 c19 -19 39 -30 59 -30 22 0 26 3 17 12 -7 7 -12 22 -12 35 0 23 1 23
26 6 22 -14 25 -22 21 -50 -6 -34 9 -56 19 -29 10 27 26 6 19 -25 -6 -25 -4
-29 16 -29 18 0 20 3 11 12 -17 17 -15 29 3 22 8 -4 15 -17 15 -31 0 -13 4
-22 9 -18 12 7 25 -31 16 -45 -3 -5 -1 -10 5 -10 6 0 13 7 16 15 4 8 11 15 16
15 6 0 8 -6 5 -14 -8 -21 27 -48 58 -44 24 3 27 -1 30 -29 1 -18 0 -32 -4 -31
-18 2 -21 -4 -11 -22 l11 -20 21 20 c34 32 56 19 23 -13 -8 -8 -11 -17 -8 -21
11 -11 23 -6 23 9 0 9 6 15 13 14 6 -1 20 1 30 6 17 7 17 8 0 20 -13 10 -15
16 -6 26 7 10 8 21 0 39 -11 28 -13 36 -15 64 -2 15 -5 16 -16 7 -11 -9 -20
-9 -34 -2 -11 6 -22 8 -24 5 -6 -6 -68 51 -68 63 0 14 -60 73 -74 73 -8 0 -17
7 -20 16 -5 13 -9 14 -21 4 -13 -11 -20 -7 -45 19 -17 17 -30 37 -30 44 0 6
-9 18 -20 25 -16 10 -18 16 -10 31 10 20 -10 48 -24 33 -4 -4 -7 -2 -5 3 3 15
-12 45 -23 45 -5 0 -7 -3 -5 -7z m-78 -33 c3 -5 1 -10 -4 -10 -6 0 -11 5 -11
10 0 6 2 10 4 10 3 0 8 -4 11 -10z m115 -39 c0 -6 -4 -13 -10 -16 -5 -3 -10 1
-10 9 0 9 5 16 10 16 6 0 10 -4 10 -9z m335 -361 c3 -5 1 -10 -4 -10 -6 0 -11
5 -11 10 0 6 2 10 4 10 3 0 8 -4 11 -10z"/>
<path d="M7221 28861 c-1 -8 -7 -11 -18 -6 -12 4 -14 3 -8 -3 6 -5 21 -13 35
-17 14 -3 20 -3 14 2 -6 4 -14 15 -17 23 -4 11 -6 11 -6 1z"/>
<path d="M7310 28830 c0 -5 5 -10 11 -10 5 0 7 5 4 10 -3 6 -8 10 -11 10 -2 0
-4 -4 -4 -10z"/>
<path d="M4146 28755 c-16 -70 -52 -139 -97 -181 -45 -42 -143 -86 -304 -134
-38 -12 -79 -25 -90 -30 -18 -8 -17 -9 7 -9 15 -1 51 10 81 23 29 12 89 31
132 41 90 19 196 59 237 87 36 25 50 76 46 168 -3 70 -4 73 -12 35z"/>
<path d="M6350 28760 c0 -5 5 -10 11 -10 5 0 7 5 4 10 -3 6 -8 10 -11 10 -2 0
-4 -4 -4 -10z"/>
<path d="M7521 28604 c0 -11 3 -14 6 -6 3 7 2 16 -1 19 -3 4 -6 -2 -5 -13z"/>
<path d="M7555 28600 c-3 -5 1 -10 9 -10 9 0 16 5 16 10 0 6 -4 10 -9 10 -6 0
-13 -4 -16 -10z"/>
<path d="M7560 28525 c0 -8 2 -15 4 -15 2 0 6 7 10 15 3 8 1 15 -4 15 -6 0
-10 -7 -10 -15z"/>
<path d="M7536 28462 c-2 -2 -2 -12 1 -23 6 -22 23 -26 23 -4 0 8 5 15 10 15
6 0 10 4 10 9 0 9 -36 11 -44 3z"/>
<path d="M3580 28390 c-12 -8 -12 -10 5 -10 11 0 27 5 35 10 12 8 12 10 -5 10
-11 0 -27 -5 -35 -10z"/>
<path d="M6870 28360 c0 -5 7 -10 15 -10 8 0 15 5 15 10 0 6 -7 10 -15 10 -8
0 -15 -4 -15 -10z"/>
<path d="M6485 28340 c-3 -5 -1 -10 4 -10 6 0 11 5 11 10 0 6 -2 10 -4 10 -3
0 -8 -4 -11 -10z"/>
<path d="M6930 28332 c0 -12 19 -26 26 -19 2 2 -2 10 -11 17 -9 8 -15 8 -15 2z"/>
<path d="M7190 28300 c0 -5 5 -10 11 -10 5 0 7 5 4 10 -3 6 -8 10 -11 10 -2 0
-4 -4 -4 -10z"/>
<path d="M7010 28270 c0 -5 5 -10 10 -10 6 0 10 5 10 10 0 6 -4 10 -10 10 -5
0 -10 -4 -10 -10z"/>
<path d="M7255 28259 c-10 -30 -2 -32 12 -3 6 13 7 24 3 24 -5 0 -12 -9 -15
-21z"/>
<path d="M7430 28269 c0 -5 5 -7 10 -4 6 3 10 8 10 11 0 2 -4 4 -10 4 -5 0
-10 -5 -10 -11z"/>
<path d="M6680 28257 c1 -15 28 -52 35 -46 2 3 6 16 7 28 2 18 -3 24 -19 27
-14 2 -23 -1 -23 -9z"/>
<path d="M7177 28263 c-4 -3 -7 -11 -7 -17 0 -6 5 -5 12 2 6 6 9 14 7 17 -3 3
-9 2 -12 -2z"/>
<path d="M11400 28266 c0 -2 7 -7 16 -10 8 -3 12 -2 9 4 -6 10 -25 14 -25 6z"/>
<path d="M3088 28223 c-21 -9 -38 -19 -38 -24 0 -4 18 0 40 10 69 31 67 42 -2
14z"/>
<path d="M11551 28132 c13 -38 234 -163 309 -176 26 -5 18 1 -30 21 -67 29
-173 88 -225 127 -45 34 -58 40 -54 28z"/>
<path d="M2554 27958 c-20 -18 -59 -49 -87 -68 -27 -19 -57 -46 -66 -59 -13
-21 -8 -19 34 12 58 42 173 146 163 147 -4 0 -24 -15 -44 -32z"/>
<path d="M7930 27890 c-9 -6 -10 -10 -3 -10 6 0 15 5 18 10 8 12 4 12 -15 0z"/>
<path d="M8100 27760 c-13 -8 -12 -10 3 -10 9 0 17 5 17 10 0 12 -1 12 -20 0z"/>
<path d="M2239 27683 c-13 -16 -12 -17 4 -4 16 13 21 21 13 21 -2 0 -10 -8
-17 -17z"/>
<path d="M2161 27596 c-42 -61 -39 -69 5 -12 20 26 34 50 31 52 -3 3 -19 -15
-36 -40z"/>
<path d="M13000 27395 c0 -7 61 -37 66 -33 2 3 -12 12 -31 21 -19 9 -35 15
-35 12z"/>
<path d="M13238 27293 c7 -3 16 -2 19 1 4 3 -2 6 -13 5 -11 0 -14 -3 -6 -6z"/>
<path d="M13766 24908 l-18 -33 21 25 c18 22 26 40 18 40 -1 0 -11 -15 -21
-32z"/>
<path d="M13698 24825 c-25 -34 -22 -43 3 -11 12 15 20 29 18 31 -2 1 -12 -7
-21 -20z"/>
<path d="M12841 24359 c-79 -15 -69 -17 74 -17 134 0 138 1 90 13 -58 15 -103
16 -164 4z"/>
<path d="M12080 24270 c-13 -8 -13 -10 2 -10 9 0 20 5 23 10 8 13 -5 13 -25 0z"/>
<path d="M11751 24087 c-67 -50 -127 -106 -113 -107 6 0 12 4 12 10 0 5 26 27
58 48 49 34 103 82 91 82 -2 0 -24 -15 -48 -33z"/>
<path d="M797 21705 c-17 -76 -21 -113 -12 -103 7 7 37 169 32 174 -2 2 -11
-30 -20 -71z"/>
<path d="M761 21541 c-6 -30 -10 -56 -8 -58 7 -6 29 85 25 99 -3 7 -10 -11
-17 -41z"/>
<path d="M11313 18945 c0 -33 2 -45 4 -27 2 18 2 45 0 60 -2 15 -4 0 -4 -33z"/>
<path d="M2853 17925 c0 -22 2 -30 4 -17 2 12 2 30 0 40 -3 9 -5 -1 -4 -23z"/>
<path d="M2813 17055 c0 -22 2 -30 4 -17 2 12 2 30 0 40 -3 9 -5 -1 -4 -23z"/>
<path d="M147 17073 c-11 -10 -8 -151 3 -158 6 -4 10 25 10 79 0 86 -1 92 -13
79z"/>
<path d="M2777 16455 c-4 -22 -6 -62 -6 -90 1 -48 2 -47 11 20 10 79 6 132 -5
70z"/>
<path d="M390 16416 c0 -3 14 -21 31 -39 18 -17 40 -50 50 -72 l19 -40 0 37
c0 31 -7 42 -50 78 -27 23 -50 39 -50 36z"/>
<path d="M2005 16275 c-10 -25 -15 -48 -13 -51 3 -3 13 16 22 42 21 62 13 69
-9 9z"/>
<path d="M2743 15930 c0 -25 2 -35 4 -22 2 12 2 32 0 45 -2 12 -4 2 -4 -23z"/>
<path d="M3599 15382 c10 -21 25 -66 31 -100 7 -34 17 -62 21 -62 22 0 -3 169
-28 188 -34 25 -45 14 -24 -26z"/>
<path d="M1035 14921 c3 -5 0 -13 -6 -16 -5 -4 -8 -14 -5 -22 4 -9 -3 -23 -15
-34 -21 -18 -23 -18 -36 -1 -14 16 -14 16 -9 0 3 -10 1 -18 -4 -18 -6 0 -10 9
-10 21 0 28 -23 19 -31 -12 -5 -16 -7 -18 -8 -6 -1 19 -51 25 -51 6 0 -6 -7
-9 -15 -6 -8 4 -17 1 -21 -5 -4 -7 -9 -6 -15 3 -8 12 -11 11 -19 -1 -5 -8 -10
-23 -10 -32 0 -11 -5 -15 -14 -12 -9 3 -21 -8 -33 -33 -10 -21 -24 -37 -32
-35 -8 2 -11 -3 -8 -11 6 -17 -19 -51 -32 -42 -7 3 -8 0 -5 -9 3 -9 1 -16 -5
-16 -6 0 -11 8 -11 18 -1 16 -1 16 -14 0 -7 -10 -16 -15 -19 -11 -4 3 -7 2 -7
-4 0 -6 -16 -27 -36 -47 -20 -20 -30 -36 -24 -36 10 0 10 -3 0 -15 -7 -8 -17
-15 -22 -15 -12 0 -39 -27 -37 -37 4 -21 -2 -33 -17 -33 -8 0 -12 -4 -9 -10 3
-5 0 -10 -7 -10 -10 0 -10 -2 1 -9 7 -5 10 -14 7 -20 -5 -7 2 -11 16 -12 17
-1 18 -3 5 -6 -9 -2 -17 -14 -17 -26 0 -40 -11 -66 -26 -60 -10 4 -11 -2 -4
-26 5 -19 5 -31 -1 -31 -5 0 -9 -17 -9 -38 0 -21 -6 -44 -12 -50 -10 -10 -10
-17 1 -33 9 -15 10 -24 2 -32 -13 -13 -15 -30 -2 -23 5 3 11 0 14 -8 4 -9 0
-12 -13 -9 -16 4 -19 -3 -22 -50 -1 -30 0 -53 4 -51 9 6 -2 -63 -19 -110 -16
-46 -16 -49 -3 -41 6 3 10 2 10 -3 0 -6 -6 -12 -14 -15 -8 -3 -14 -18 -14 -34
1 -15 -2 -38 -6 -51 -6 -18 -4 -22 13 -22 26 0 28 -20 3 -27 -17 -4 -18 -10
-9 -56 6 -29 15 -55 21 -59 8 -6 8 -10 0 -15 -5 -5 -11 -17 -11 -28 -1 -45
-12 -97 -23 -110 -7 -8 -9 -19 -5 -25 3 -5 -1 -10 -10 -10 -9 0 -19 -9 -22
-20 -3 -11 -10 -20 -15 -20 -5 0 -7 -4 -3 -9 3 -5 1 -12 -4 -15 -5 -3 -8 -27
-7 -53 1 -27 -2 -54 -7 -60 -6 -9 -5 -13 3 -13 7 0 10 -8 7 -20 -3 -10 -2 -21
2 -23 3 -2 1 -2 -6 -1 -6 2 -27 6 -45 9 -29 6 -33 10 -35 41 -2 22 2 34 10 35
6 0 3 4 -8 8 -12 5 -20 17 -20 32 0 13 -5 23 -11 22 -7 -1 -10 6 -7 16 4 15
-2 21 -27 26 -23 5 -29 10 -19 16 17 10 7 21 -14 14 -34 -14 -35 -75 -2 -197
36 -135 37 -138 46 -138 5 0 9 -8 9 -17 0 -10 31 -51 68 -91 l69 -73 79 3 c60
2 82 0 90 -12 18 -22 127 3 181 41 23 16 46 29 52 29 6 0 33 23 59 50 54 57
112 163 112 207 0 33 46 323 59 373 5 19 17 62 27 95 11 39 18 94 18 160 0
106 4 89 -94 360 -40 111 -64 209 -68 286 -3 64 0 84 18 120 46 91 70 98 158
46 31 -18 80 -39 107 -47 38 -10 63 -27 102 -67 55 -55 58 -63 94 -217 25
-110 42 -153 93 -236 52 -86 78 -113 156 -165 36 -24 76 -53 88 -66 l24 -22
46 54 c26 29 46 60 44 68 -2 14 -2 14 8 1 9 -13 16 -9 45 24 19 22 35 46 35
55 -1 11 -9 6 -25 -14 -23 -28 -25 -29 -25 -8 0 44 -91 43 -111 -1 -17 -36
-49 -29 -120 28 -43 34 -73 69 -91 104 -15 28 -25 52 -23 52 3 0 -9 23 -26 50
-31 50 -62 148 -78 245 -5 28 -28 89 -51 137 -23 48 -39 92 -35 98 3 5 -1 10
-10 10 -11 0 -15 5 -12 15 4 8 2 17 -3 20 -6 4 -10 15 -10 25 0 10 -12 28 -27
39 -16 11 -32 26 -38 32 -5 6 -20 21 -32 33 -14 14 -23 36 -23 55 0 31 -15 43
-23 19 -2 -7 -2 -3 0 10 2 15 -2 22 -12 22 -9 0 -14 -4 -10 -9z m-505 -405 c0
-3 -4 -8 -10 -11 -5 -3 -10 -1 -10 4 0 6 5 11 10 11 6 0 10 -2 10 -4z m200
-276 c0 -17 -2 -19 -14 -8 -10 9 -11 15 -2 20 16 11 16 10 16 -12z m-40 -34
c0 -3 -4 -8 -10 -11 -5 -3 -10 -1 -10 4 0 6 5 11 10 11 6 0 10 -2 10 -4z m141
-162 c11 -30 3 -46 -11 -24 -7 11 -10 6 -11 -20 l-1 -35 -12 40 c-8 28 -9 44
-1 52 16 19 25 15 36 -13z m16 -66 c-3 -8 -6 -5 -6 6 -1 11 2 17 5 13 3 -3 4
-12 1 -19z m867 -107 c3 -4 -10 -26 -30 -47 l-35 -39 5 34 c7 42 46 76 60 52z
m-1093 -71 c15 0 10 -28 -8 -50 -10 -11 -25 -20 -34 -20 -15 0 -16 5 -7 41 8
29 15 39 25 35 8 -4 19 -6 24 -6z m41 -332 c-7 -7 -12 -8 -12 -2 0 14 12 26
19 19 2 -3 -1 -11 -7 -17z m-272 -38 c0 -5 -4 -10 -9 -10 -6 0 -13 5 -16 10
-3 6 1 10 9 10 9 0 16 -4 16 -10z m446 -160 c1 -17 -3 -30 -7 -30 -5 0 -8 3
-8 8 4 22 -3 31 -18 25 -15 -6 -16 -5 -3 10 23 25 35 20 36 -13z m-621 -160
c-3 -5 -10 -10 -16 -10 -5 0 -9 5 -9 10 0 6 7 10 16 10 8 0 12 -4 9 -10z m422
4 c-3 -3 -12 -4 -19 -1 -8 3 -5 6 6 6 11 1 17 -2 13 -5z m-384 -26 c-2 -5 -3
-22 -3 -39 0 -33 -21 -37 -26 -4 -2 11 -7 21 -13 23 -19 6 1 33 23 30 11 -2
20 -6 19 -10z m391 -64 c3 -9 6 -27 6 -40 0 -13 4 -24 10 -24 5 0 7 -7 4 -15
-4 -8 -1 -15 5 -15 6 0 11 -9 11 -21 0 -18 -4 -20 -25 -15 -20 5 -25 3 -25
-13 0 -10 -6 -21 -14 -24 -12 -5 -13 -1 -4 24 5 16 14 29 19 29 5 0 9 5 9 11
0 5 -4 8 -9 5 -14 -9 -19 15 -10 53 4 18 5 40 2 47 -3 8 -1 14 5 14 5 0 13 -7
16 -16z m-424 -14 c0 -5 -5 -10 -11 -10 -5 0 -7 5 -4 10 3 6 8 10 11 10 2 0 4
-4 4 -10z"/>
<path d="M10897 14363 c-15 -23 -11 -87 12 -186 24 -102 39 -131 20 -36 -6 30
-14 95 -18 144 -3 51 -9 85 -14 78z"/>
<path d="M90 14210 c0 -84 3 -150 6 -147 8 8 7 287 -1 295 -3 3 -5 -64 -5
-148z"/>
<path d="M1834 14250 c16 -92 17 -141 2 -200 -18 -68 -14 -91 6 -44 16 36 15
210 -1 244 l-11 25 4 -25z"/>
<path d="M3512 14130 c0 -63 0 -64 9 -22 4 24 4 52 -1 65 -6 16 -9 5 -8 -43z"/>
<path d="M77 13998 c-9 -75 -8 -126 2 -132 13 -8 26 163 14 175 -7 7 -12 -8
-16 -43z"/>
<path d="M10981 13942 c-1 -16 37 -153 45 -161 3 -3 3 10 -1 29 -11 51 -43
147 -44 132z"/>
<path d="M3472 13840 c0 -14 2 -19 5 -12 2 6 2 18 0 25 -3 6 -5 1 -5 -13z"/>
<path d="M71 13701 c-22 -149 -25 -242 -8 -283 36 -85 50 -23 45 195 -4 173
-18 207 -37 88z"/>
<path d="M7331 13661 c-1 -49 2 -62 10 -54 9 9 9 26 2 65 l-10 53 -2 -64z"/>
<path d="M7093 13655 c0 -22 2 -30 4 -17 2 12 2 30 0 40 -3 9 -5 -1 -4 -23z"/>
<path d="M7346 13453 c10 -40 14 -41 14 -5 0 18 -5 32 -10 32 -6 0 -8 -11 -4
-27z"/>
<path d="M7352 13300 c0 -19 2 -27 5 -17 2 9 2 25 0 35 -3 9 -5 1 -5 -18z"/>
<path d="M180 13230 c0 -5 5 -10 11 -10 5 0 7 5 4 10 -3 6 -8 10 -11 10 -2 0
-4 -4 -4 -10z"/>
<path d="M11212 12740 c0 -14 2 -19 5 -12 2 6 2 18 0 25 -3 6 -5 1 -5 -13z"/>
<path d="M7172 11820 c0 -14 2 -19 5 -12 2 6 2 18 0 25 -3 6 -5 1 -5 -13z"/>
<path d="M7491 11770 c0 -36 2 -41 10 -27 7 12 7 27 0 45 -9 25 -9 24 -10 -18z"/>
<path d="M3395 11600 c3 -58 9 -121 15 -140 7 -26 8 -8 4 70 -3 58 -9 121 -14
140 -7 25 -8 5 -5 -70z"/>
<path d="M7532 11230 c0 -14 2 -19 5 -12 2 6 2 18 0 25 -3 6 -5 1 -5 -13z"/>
<path d="M7192 11065 c0 -16 2 -22 5 -12 2 9 2 23 0 30 -3 6 -5 -1 -5 -18z"/>
<path d="M7562 10885 c0 -16 2 -22 5 -12 2 9 2 23 0 30 -3 6 -5 -1 -5 -18z"/>
<path d="M7573 10800 c0 -25 2 -35 4 -22 2 12 2 32 0 45 -2 12 -4 2 -4 -23z"/>
<path d="M4414 1938 c-6 -24 -14 -52 -18 -63 -4 -11 4 -2 18 20 14 22 26 50
26 63 0 36 -15 25 -26 -20z"/>
<path d="M4050 1331 c-12 -24 -13 -34 -1 -27 9 6 22 46 15 46 -2 0 -8 -9 -14
-19z"/>
<path d="M6499 513 c-13 -16 -12 -17 4 -4 9 7 17 15 17 17 0 8 -8 3 -21 -13z"/>
<path d="M6315 430 c-13 -6 -15 -9 -5 -9 8 0 22 4 30 9 18 12 2 12 -25 0z"/>
<path d="M6089 314 c-21 -24 -22 -26 -3 -16 25 13 50 42 37 42 -5 0 -20 -12
-34 -26z"/>
<path d="M6026 255 c-11 -8 -17 -17 -14 -20 2 -3 13 4 23 15 21 23 18 25 -9 5z"/>
</g>
</svg>
